
                                               <svg version="1.1" id="Calque_6" xmlns="http://www.w3.org/2000/svg" xmlns:xlink="http://www.w3.org/1999/xlink" x="0px" y="0px"
                                    viewBox="0 0 120 120" style="enable-background:new 0 0 120 120;" xml:space="preserve">
                                    <style type="text/css">
                                       .st0{fill:#ec6813;}
                                       .st1{fill:none;stroke:#ec6813;stroke-width:2;stroke-miterlimit:10;}
                                    </style>
                                    <g>
                                       <path class="st0" d="M59.2,42.4l-18.4,0.2c-0.3,0-0.7,0-0.9,0.4c-0.2,0.3-0.3,0.5-0.3,0.9l7.1,53.4c0.1,0.6,0.6,1.1,1.2,1.1l25.1,0
                                          c0.6,0,1.1-0.6,1.2-1.2l6.2-53.6c0.1-0.4,0-0.8-0.2-1c-0.3-0.4-0.7-0.4-0.9-0.4l-17,0.1L59.2,42.4z M44.1,58.4
                                          c1.9-0.9,7.1-2.4,15.5,1.2c3.8,1.6,7.5,2.5,10.9,2.5h0.2c1.8,0,3.5-0.3,5.1-0.8l0.2-0.1l-4,34.6l-23,0.2l-5-37.5L44.1,58.4z
                                          M76.3,58.5c-0.3,0.2-1.6,0.7-3.6,0.9c-0.6,0.1-1.3,0.1-1.9,0.1h-0.1c-3.2,0-6.6-0.8-10.1-2.3c-3.7-1.6-7.3-2.4-10.6-2.4
                                          c-2.8,0-4.9,0.6-6.2,1.1l-0.1,0l-1.5-11l35.7-0.3L76.3,58.5L76.3,58.5z"/>
                                       <polyline class="st1" points="60,58.3 60,33.2 74.3,21.5 	"/>
                                    </g>
                                 </svg>