   <svg version="1.1" id="Calque_1" xmlns="http://www.w3.org/2000/svg" xmlns:xlink="http://www.w3.org/1999/xlink" x="0px" y="0px"
                              viewBox="0 0 120 120" style="enable-background:new 0 0 120 120;" xml:space="preserve">
                              <style type="text/css">
                                 .st0{fill:#eb6713;stroke:#eb6713;stroke-width:0.5;stroke-miterlimit:10;}
                                 .st1{fill:#eb6713;}
                              </style>
                              <g>
                                 <g>
                                    <rect x="17.1" y="60.6" class="st0" width="28.4" height="2.1"/>
                                    <rect x="6.6" y="60.6" class="st0" width="4.2" height="2.1"/>
                                    <path class="st0" d="M95.5,25.4l-33.7,0.1l-0.1,0.1c-1.8,0.6-12.2,4.4-12.2,12.4c0,2.7,1.9,3.9,3.8,3.9h4.5l-0.1,0.3l-3,10.2H32.8
                                       v2.1h21.4l-1.3,6.9l2.1,0.4l5.8-24.7l0.9,55.4H51.5l1.8-21.7l-0.5-1l-0.6-0.2H21.2v2.1h29.8l-2,22.8h64.3L95.5,25.4z M56.1,39.8
                                       c0.4-0.8,0.7-1.7,0.8-2.4h1.7l-0.4,2.4H56.1z M59,35.3h-3L55,36.2c-0.2,1.5-0.9,3.6-1.7,3.6c-1.1,0-1.7-0.6-1.7-1.7
                                       c0-5.2,6-8.4,9.1-9.8L59,35.3z M63.9,92.5L63,42.9l0.1-15.3l31-0.1l16.8,64.9H63.9z"/>
                                    <rect x="12.6" y="69.6" class="st0" width="4.4" height="2.1"/>
                                    <rect x="24.1" y="52.4" class="st0" width="5.2" height="2.1"/>
                                 </g>
                                 <g>
                                    <path class="st1" d="M67.5,69.7L85,64.9c0,0,0.6-0.2,0.7-0.1C85.8,64.8,85,65,85,65l-17.3,5.3C67.7,70.4,67.4,70.3,67.5,69.7z"/>
                                    <path class="st1" d="M100.7,70.6l-17.9-3c0,0-0.6-0.1-0.7-0.2s0.7,0,0.7,0l17.9,2.4C100.7,69.9,101,70.1,100.7,70.6z"/>
                                    <path class="st1" d="M77.8,67.7l8.1-2.6c0,0,0.1-0.1,0.1-0.1c0.1,0,5.1-0.3,5.1-0.3s-0.2,1.9-1.4,3.4c-1.5-0.2-7.3-1-7.3-1
                                       s-0.6-0.2-0.7,0.3c-0.1,0.5,0.6,0.7,0.8,0.7c0.2,0,6.3,1.1,6.3,1.1s-1.6,1.6-4.7,1.7C80.8,70.8,78.6,68.8,77.8,67.7z"/>
                                    <path class="st1" d="M89,61.1c0,0.2,0.2,0.7,0.7,0.6c0,0,0.1-0.7,0.3-1c0.1-0.3,0.3-1.3,0.2-1.8l-0.4,0
                                       C89.7,58.9,89.9,61.1,89,61.1"/>
                                    <path class="st1" d="M87.6,62.3c0.6-0.7,0.2,0.1,0.1,0.1c0,0.1-1.6,1.8-2.4,1.5C85.4,63.7,86.4,63.6,87.6,62.3 M83.4,64.9l2.1-0.6
                                       c0,0,0.1,0,0.1,0c0.1,0,0.1,0,0.2,0c0.2,0.1,0.3,0.2,0.3,0.4c0,0.1,0,0.1,0,0.1c1-0.2,2.1-0.7,3.1-1.6c1-0.9,0.6-1.5,0.6-1.5
                                       c-0.1,0-0.3,0.1-0.6-0.1c-0.4-0.2-0.4-0.7-0.4-0.7c-0.5,0-2,1.5-2.9,2.2c-0.9,0.7-2.9,0.8-2.9,1.1C82.8,64.6,83,64.8,83.4,64.9"/>
                                    <path class="st1" d="M84.6,57.6c-0.1,0-0.1-0.1-0.1-0.1c-0.5-0.3-0.9-0.5-1.4-0.8c0,0-0.1,0-0.1-0.1c-0.2-0.1-0.3,0-0.3,0.1
                                       c-0.1,0.2-0.1,0.4-0.2,0.6c0,0.1,0,0.2,0.2,0.2c0,0,0,0,0.1,0C83.4,57.7,84,57.7,84.6,57.6C84.6,57.6,84.6,57.6,84.6,57.6"/>
                                    <path class="st1" d="M84.7,58C84.7,58,84.6,58,84.7,58c-0.6,0.3-1,0.6-1.5,0.9c-0.3,0.2-0.3,0.3-0.1,0.5c0.1,0.1,0.2,0.2,0.4,0.3
                                       c0.1,0.1,0.2,0.1,0.2,0c0,0,0.1-0.1,0.1-0.1C84.1,59,84.4,58.5,84.7,58C84.7,58,84.7,58,84.7,58"/>
                                    <path class="st1" d="M84.8,58c0,0.1,0,0.1-0.1,0.1c-0.3,0.5-0.6,1-0.8,1.4c-0.2,0.3-0.2,0.4,0.2,0.5c0.2,0,0.3,0.1,0.5,0.1
                                       c0.1,0,0.2,0,0.2-0.1c0,0,0-0.1,0-0.1C84.8,59.3,84.8,58.7,84.8,58C84.9,58.1,84.8,58.1,84.8,58"/>
                                    <path class="st1" d="M84.6,57.8c-0.6,0-1.2,0-1.8,0c-0.2,0-0.3,0.1-0.2,0.3c0,0.2,0.1,0.4,0.2,0.6c0,0.1,0.1,0.2,0.2,0.1
                                       c0,0,0,0,0,0C83.5,58.5,84.1,58.1,84.6,57.8C84.6,57.8,84.6,57.8,84.6,57.8"/>
                                    <path class="st1" d="M85,58c0,0.1,0,0.3,0,0.4c0,0.5,0,0.9,0,1.4c0,0,0,0.1,0,0.1c0,0.1,0.1,0.1,0.2,0.1c0.2-0.1,0.5-0.1,0.7-0.2
                                       c0.1,0,0.1-0.1,0.1-0.2c0,0,0-0.1,0-0.1C85.6,59.1,85.3,58.6,85,58C85,58,85,58,85,58"/>
                                    <path class="st1" d="M85.1,57.9c0.1,0.2,0.2,0.3,0.3,0.5c0.2,0.4,0.4,0.7,0.6,1.1c0,0,0,0.1,0.1,0.1c0.1,0.1,0.1,0.1,0.2,0
                                       c0.2-0.2,0.3-0.3,0.5-0.5c0.1-0.1,0.1-0.1,0-0.2c0,0-0.1-0.1-0.1-0.1C86.2,58.6,85.7,58.3,85.1,57.9C85.2,58,85.2,58,85.1,57.9"/>
                                    <path class="st1" d="M85.1,60.5c-0.5,0-1.1-0.1-1.6-0.4c-1.3-0.8-1.7-2.4-1-3.7l0,0l0,0c0,0,0.1,0,0.1,0.1
                                       c0.1,0.1,0.1,0.1,0.4,0.3l0,0c-0.2-0.1-0.3-0.2-0.4-0.3c0,0-0.1,0-0.1-0.1c-0.7,1.3-0.3,2.9,1,3.7c1.3,0.7,2.9,0.3,3.7-0.9
                                       c0,0-0.1,0-0.1,0c-0.1,0-0.2-0.1-0.5-0.2l0,0c0.2,0.1,0.4,0.1,0.4,0.2c0.1,0,0.1,0,0.2,0.1l0,0l0,0C86.8,60,85.9,60.4,85.1,60.5z"
                                       />
                                    <path class="st1" d="M81.7,53.4c-0.2-0.1-0.3-0.3-0.3,0c0,0.2,0,0.3,0,0.3c0,0.1,0,0.2,0.2,0.1C81.8,53.7,81.8,53.5,81.7,53.4
                                       M80.9,53.1c-0.3,0-0.5,0-0.3,0.2c0.2,0.2,0.2,0.5,0.2,0.7c0.1-0.1,0.4-0.1,0.4-0.4C81.2,53.2,81.2,53,80.9,53.1 M80.3,53.3
                                       c-0.3,0-0.7,0.6-0.7,0.7c0.2-0.1,0.5,0,0.9,0.4c0.1,0.1,0.2-0.2,0.2-0.2S80.6,53.3,80.3,53.3 M79.4,54.3c-0.1,0.3-0.3,0.7-0.2,1.1
                                       c0.1-0.1,0.7-0.7,1.1-0.6c0.2,0.1,0.2-0.2,0.2-0.3c0-0.1-0.4-0.3-0.5-0.4C79.8,54.1,79.5,54,79.4,54.3 M79.2,55.9
                                       c0.1,0.3,0.3,0.7,0.4,0.8c0.1-0.2,0.2-0.8,0.7-1.1c0.1-0.1,0-0.2,0-0.4c0-0.1-0.1-0.3-0.4-0.2C79.5,55.2,79.1,55.6,79.2,55.9
                                       M80.2,57c0.1,0,0.6-0.4,0.6-1c0-0.3-0.3-0.4-0.4-0.4c-0.2,0-0.6,0.5-0.8,1C79.7,56.8,80.1,57,80.2,57 M82.9,53.3
                                       c-0.1,0.1-0.2,0.2,0,0.3c0.1,0.1,0,0.3-0.1,0.5c-0.1,0.2-0.4,0.2-0.7,0c-0.3-0.2-0.8-0.2-1.2,0.1c-0.4,0.4-0.4,1-0.3,1.1
                                       c0.1,0.1,0.4,0.4,0.4,0.7c0,0.8-0.6,1.2-0.8,1.2c-0.1,0-0.5-0.2-0.6-0.3c-0.1-0.1-0.8-0.8-0.6-1.8c0.2-1,0.8-1.8,1.5-2.1
                                       c0.7-0.3,1.2,0.3,1.3,0.4c0.1,0.1,0.7-0.2,0.9-0.3C82.9,53,83,53.1,82.9,53.3"/>
                                    <path class="st1" d="M85.9,53.7c0.2,0.1,0.3,0.3,0.1,0.3c-0.2,0-0.2,0.1-0.2,0.1c-0.1,0-0.1,0-0.1-0.2
                                       C85.6,53.6,85.7,53.6,85.9,53.7 M86.4,54.3c0.1,0.3,0.2,0.5-0.1,0.4c-0.2-0.1-0.4-0.1-0.6-0.1c0-0.1-0.1-0.4,0.1-0.5
                                       C86.2,54.1,86.3,54,86.4,54.3 M86.5,54.9c0.1,0.2-0.2,0.7-0.2,0.8c0-0.2-0.2-0.5-0.6-0.7c-0.1,0,0.1-0.2,0.1-0.2
                                       S86.4,54.7,86.5,54.9 M86,56c-0.2,0.2-0.4,0.4-0.7,0.4c0.1-0.1,0.3-0.8,0-1.1c-0.1-0.2,0.1-0.2,0.2-0.3c0.1-0.1,0.4,0.3,0.5,0.4
                                       C86,55.6,86.2,55.8,86,56 M85,56.5c-0.3,0-0.7-0.2-0.8-0.2c0.2-0.1,0.5-0.4,0.6-0.9c0-0.1,0.2-0.1,0.3-0.1c0.1,0,0.2,0,0.3,0.4
                                       C85.3,56,85.2,56.5,85,56.5 M83.7,55.7c0-0.1,0.1-0.7,0.5-0.8c0.2-0.1,0.4,0.2,0.4,0.3c0.1,0.2-0.1,0.7-0.5,0.9
                                       C84,56.2,83.7,55.8,83.7,55.7 M85.4,52.5c-0.1,0.1-0.1,0.2-0.2,0.1c-0.1-0.1-0.2,0.1-0.3,0.2c-0.1,0.1,0,0.4,0.3,0.7
                                       c0.3,0.3,0.5,0.7,0.4,1.1c-0.1,0.4-0.6,0.5-0.7,0.5c-0.1,0-0.5-0.3-0.7-0.2c-0.6,0.2-0.6,0.8-0.6,0.9c0,0.1,0.4,0.4,0.5,0.5
                                       c0.1,0.1,0.9,0.6,1.6,0.2c0.7-0.4,1.1-1.1,1-1.8c-0.1-0.7-0.7-1.1-0.8-1.2c-0.1-0.1-0.1-0.7-0.1-0.9
                                       C85.6,52.5,85.5,52.4,85.4,52.5"/>
                                    <path class="st1" d="M88.1,57.7c0.1,0,0.3,0,0.2,0.1c-0.1,0.1-0.1,0.1-0.1,0.1c0,0-0.1,0.1-0.2,0C87.9,57.8,88,57.7,88.1,57.7
                                       M88.6,57.8c0.2,0.1,0.3,0.1,0.1,0.2c-0.2,0.1-0.3,0.2-0.3,0.2c-0.1-0.1-0.2-0.2-0.1-0.3C88.4,57.7,88.4,57.7,88.6,57.8 M88.9,58
                                       c0.2,0.1,0.2,0.5,0.2,0.5c-0.1-0.1-0.3-0.1-0.6-0.1c0,0,0-0.1,0-0.1S88.8,57.9,88.9,58 M89.2,58.8c0,0.2,0,0.4-0.2,0.5
                                       c0-0.1-0.2-0.5-0.5-0.6c-0.2,0-0.1-0.2,0-0.2c0-0.1,0.3,0,0.4,0C89,58.5,89.2,58.6,89.2,58.8 M88.8,59.5c-0.2,0.1-0.4,0.2-0.5,0.2
                                       c0-0.1,0.1-0.4-0.1-0.7c0-0.1,0.1-0.1,0.1-0.2c0,0,0.1-0.1,0.3,0.1C88.8,59.1,89,59.4,88.8,59.5 M87.9,59.6
                                       c-0.1,0-0.3-0.4-0.1-0.6c0.1-0.1,0.3-0.1,0.3-0.1c0.1,0,0.2,0.4,0.1,0.7C88.2,59.7,87.9,59.7,87.9,59.6 M87.4,57.3
                                       c0,0.1,0,0.1-0.1,0.1c-0.1,0-0.1,0.1-0.1,0.2c0,0.1,0.2,0.2,0.4,0.2c0.2,0,0.5,0.1,0.7,0.4c0.1,0.3-0.1,0.5-0.2,0.6
                                       c-0.1,0-0.4,0-0.4,0.2c-0.2,0.4,0,0.7,0.1,0.7c0.1,0,0.4,0,0.5,0c0.1,0,0.7-0.1,0.9-0.6c0.2-0.5,0.1-1-0.3-1.3
                                       c-0.3-0.3-0.8-0.2-0.9-0.2c-0.1,0-0.4-0.3-0.4-0.4C87.5,57.2,87.4,57.2,87.4,57.3"/>
                                    <path class="st1" d="M79.6,64c0,0.1,0,0.2,0.1,0.2c0.1-0.1,0.1-0.1,0.2-0.1c0,0,0.1,0,0-0.1C79.7,63.9,79.6,63.9,79.6,64
                                       M79.7,64.5c0.1,0.2,0.1,0.3,0.2,0.1c0.1-0.1,0.2-0.2,0.3-0.3c-0.1,0-0.2-0.2-0.3-0.1C79.6,64.3,79.6,64.3,79.7,64.5 M79.9,64.8
                                       c0.1,0.1,0.5,0.2,0.6,0.2c-0.1-0.1-0.1-0.3-0.1-0.6c0,0-0.2,0-0.2,0S79.9,64.6,79.9,64.8 M80.8,65c0.2,0,0.4,0,0.6-0.2
                                       c-0.1,0-0.6-0.2-0.6-0.4c0-0.1-0.2,0-0.2,0c-0.1,0-0.1,0.3,0,0.4C80.5,64.8,80.5,65,80.8,65 M81.6,64.7c0.1-0.1,0.3-0.4,0.3-0.4
                                       c-0.1,0-0.5,0.1-0.8-0.1c-0.1,0-0.1,0.1-0.2,0.1c-0.1,0-0.1,0.1,0.1,0.3C81.1,64.7,81.4,64.8,81.6,64.7 M81.8,63.9
                                       c0,0-0.4-0.2-0.7-0.1c-0.2,0.1-0.1,0.3-0.1,0.3c0,0.1,0.4,0.2,0.7,0.1C81.9,64.2,81.8,63.9,81.8,63.9 M79.2,63.4
                                       c0.1,0,0.1,0,0.2-0.1c0-0.1,0.1-0.1,0.3-0.1c0.1,0,0.2,0.1,0.2,0.4c0,0.2,0.1,0.5,0.4,0.6c0.3,0.1,0.6-0.1,0.6-0.1
                                       c0-0.1,0.1-0.3,0.2-0.4c0.4-0.2,0.8,0,0.8,0.1c0.1,0.1,0,0.3,0,0.4c0,0.1-0.2,0.6-0.7,0.8c-0.6,0.2-1.1,0.1-1.5-0.2
                                       c-0.3-0.3-0.2-0.7-0.2-0.8c0-0.1-0.3-0.3-0.4-0.4C79,63.5,79.1,63.4,79.2,63.4"/>
                                    <path class="st1" d="M82,61.8L82,61.8C82,61.8,82,61.8,82,61.8z M85.9,61.7c-0.4,0-0.8,0.2-1.2,0.4c-0.2,0.1-0.4,0.3-0.7,0.2
                                       c-0.1,0-0.3,0-0.5,0c-0.1,0-0.3,0-0.4,0c0-0.2,0.1-0.3-0.2-0.4c0.1-0.3,0.5-0.4,0.6-0.2c0,0-0.1-0.1-0.1-0.1c-0.2,0-0.4,0-0.5,0.1
                                       c0.1-0.1,0.1-0.1,0.2-0.2c-0.3,0.1-0.4,0.3-0.3,0.7c-0.1-0.1-0.3-0.2-0.3-0.4c0-0.1,0-0.1-0.1-0.2c0.1-0.2,0.3-0.3,0.6-0.3
                                       c-0.2-0.1-0.2-0.1-0.6,0.2c0.1-0.1,0.1-0.1,0.1-0.2c-0.3,0.1-0.3,0.4-0.3,0.6c-0.1-0.1-0.2-0.2-0.1-0.3c0-0.1,0-0.2,0-0.2
                                       c-0.1-0.1-0.1-0.1,0-0.2c0.1-0.1,0.3-0.2,0.4-0.3c0.1,0,0.2-0.1,0.2,0.1c0,0,0,0,0.1-0.1c0-0.1,0-0.2-0.1-0.2
                                       c-0.2-0.1-0.4,0.1-0.6,0.2c0.1-0.1,0.1-0.1,0.1-0.2c-0.2,0.1-0.4,0.4-0.3,0.7c0,0.1,0,0.2,0,0.3l0,0c0,0,0,0,0,0c0,0,0,0,0,0
                                       c0,0.2-0.2,0.3-0.4,0.4c-0.1,0-0.1,0.1-0.2,0.1c-0.1,0.1-0.2,0.2-0.3,0.4c0.2,0.2,0.3,0.4,0.6,0.4c0.1,0.2,0.5,0.3,0.7,0.1
                                       c0.1-0.1,0.1-0.2,0.2-0.3c0,0.1,0,0.1-0.2,0.5c0.1,0,0.2,0,0.3,0c0.6-0.1,1.1-0.2,1.7-0.3c0.5-0.1,0.9-0.3,1.3-0.6
                                       c0.1-0.1,0.2-0.2,0.3-0.3c0,0,0-0.1,0-0.2c0,0,0,0,0.1,0c0,0,0.1-0.1,0.1-0.2C86,61.7,86,61.7,85.9,61.7"/>
                                    <path class="st1" d="M82.1,60.5c0.2-0.1,0.2-0.1,0.3,0.1c0-0.1,0-0.1-0.1-0.2c-0.1,0-0.2-0.1-0.2,0c-0.1,0.1-0.3,0.2-0.4,0.3
                                       c-0.1,0-0.1,0.1-0.2,0.1c0.1-0.1,0.1-0.2,0.2-0.3c-0.2,0.1-0.3,0.2-0.3,0.4c0.1,0,0.2-0.1,0.2-0.1C81.9,60.7,82,60.6,82.1,60.5"/>
                                    <path class="st1" d="M81.5,59.2c0.1,0,0.2,0,0.4,0c-0.3-0.2-0.6-0.1-0.7,0.2c-0.1,0.3-0.2,0.6-0.4,1c0,0,0,0.1-0.1,0.1
                                       c0.1-0.3,0.1-0.6,0.1-0.9c0-0.3,0-0.6,0-0.9c0.3,0,0.5,0.1,0.7,0.1c0,0,0,0,0-0.1c-0.1,0-0.2,0-0.3-0.1c-0.6-0.1-0.6-0.1-0.6,0.4
                                       c0,0.3-0.1,0.7-0.2,1c0-0.5,0-1,0-1.6c0.4,0.1,0.7,0,1,0.1c0,0,0-0.1,0-0.1c-0.3,0-0.6-0.1-0.9-0.1c-0.1,0-0.2,0-0.2,0.2
                                       c0,0.3,0,0.5,0,0.8c0,0.2,0,0.3,0,0.5c-0.1-0.1-0.1-0.3-0.2-0.7c0-0.3,0-0.5,0-0.8c0.4-0.1,0.8-0.1,1.2-0.2c0,0,0-0.1,0-0.1
                                       c-0.4,0-0.8,0.1-1.2,0.1c0,0,0,0,0,0l0,0c0,0,0,0,0,0c0.1-0.1,0.2-0.1,0.3-0.2c0,0-0.1,0-0.1,0c0,0,0-0.1,0.1-0.1
                                       c-0.2,0.1-0.3,0.2-0.5,0.4c-0.2,0.1-0.2,0.3-0.2,0.6c0,0.2,0.1,0.4,0.1,0.6c0,0,0.1,0.1,0.1,0.1c-0.5-0.4-1-0.8-1.1-1.5
                                       c-0.1,0.2,0.1,0.7,0.6,1.3c-0.1,0-0.2,0-0.3,0c-0.1-0.2-0.3-0.4-0.6-0.5c0.2,0.1,0.4,0.3,0.5,0.4c0,0,0,0,0,0
                                       c-0.2-0.1-0.4-0.1-0.6-0.2c0,0,0,0-0.1-0.1c-0.2-0.3-0.3-0.6-0.5-1c-0.2-0.5-0.5-0.7-1-0.9c-0.4-0.1-0.8,0-1.1,0.3
                                       c-0.3,0.3-0.5,0.7-0.3,1.2c0,0,0,0,0,0c0.2,1,0.9,1.6,1.6,2.3c0.9,0.8,1.9,1.4,3,2.1c0,0,0,0,0.1,0c-0.2-0.1-0.4-0.3-0.7-0.4
                                       c-1.1-0.7-2.1-1.4-3-2.3c-0.3-0.3-0.5-0.6-0.7-0.9c0-0.1-0.1-0.1-0.1-0.2c0.9,1,1.9,1.8,3,2.5c-0.1-0.1-0.2-0.1-0.3-0.2
                                       c-0.1-0.1-0.2-0.1-0.3-0.2c-0.8-0.6-1.5-1.1-2.2-1.9c-0.3-0.4-0.5-0.8-0.3-1.3c0.2-0.6,1-0.8,1.6-0.5c0.2,0.1,0.3,0.3,0.4,0.4
                                       c0.2,0.2,0.3,0.5,0.4,0.7c0,0,0,0.1,0,0.1c-0.2-0.1-0.5-0.2-0.7-0.3c0,0,0,0.1,0,0.1c0.2,0.1,0.3,0.2,0.5,0.3
                                       c0.2,0.1,0.3,0.2,0.4,0.4c-0.2-0.3-0.6-0.5-0.9-0.7c0,0,0,0,0,0.1c0.1,0.1,0.3,0.2,0.4,0.2c0.1,0.1,0.2,0.2,0.3,0.2
                                       c0.1,0.1,0.1,0.2,0.2,0.3c-0.1,0-0.1-0.1-0.2-0.1c0,0,0,0.1,0,0.1c0.1,0.1,0.1,0.1,0.2,0.2c-0.2,0-0.3-0.1-0.4-0.2
                                       c-0.1-0.1-0.2-0.2-0.4-0.3c0,0,0,0,0,0c0.2,0.2,0.4,0.5,0.6,0.7c0.5,0.4,1,0.8,1.6,1.1c0.1,0.1,0.3,0.1,0.4,0.2c0,0,0,0.1,0,0.1
                                       c0.2,0.2,0.4,0.4,0.5,0.6c0.1,0.1,0.2,0.2,0.2,0.3c0.3,0.4,0.4,0.4,0.7-0.1c0-0.1,0.1-0.1,0.2-0.1c0.1-0.1,0.3-0.2,0.4-0.3
                                       c-0.1-0.2-0.2-0.3-0.3-0.5c0,0,0-0.1,0-0.1c0-0.2-0.1-0.2-0.2-0.3c0,0.1-0.1,0.1-0.1,0.2c0,0,0,0,0,0c0-0.2-0.1-0.4-0.1-0.6
                                       c0.1-0.1,0.2-0.3,0.3-0.5c0,0,0.1-0.1,0.2-0.1c0-0.1-0.1-0.2-0.2,0c-0.1,0.1-0.2,0.2-0.3,0.3c0-0.1-0.1-0.1-0.1-0.2c0,0,0,0-0.1,0
                                       c0,0.3,0,0.5,0,0.8c0,0-0.1,0-0.2-0.1c0.1-0.4,0.3-0.9,0.4-1.3C81.4,59.3,81.4,59.2,81.5,59.2"/>
                                    <path class="st1" d="M76.9,65.5l5.1-0.3l-4.9,1.4C77.2,66.6,76.8,66.1,76.9,65.5z"/>
                                 </g>
                              </g>
                           </svg>