  <svg version="1.1" id="Calque_7" xmlns="http://www.w3.org/2000/svg" xmlns:xlink="http://www.w3.org/1999/xlink" x="0px" y="0px"
                                    viewBox="0 0 120 120" style="enable-background:new 0 0 120 120;" xml:space="preserve">
                                    <style type="text/css">
                                       .st0{fill:#ec6813 !important;}
                                    </style>
                                    <g>
                                       <g>
                                          <path class="st0" d="M61,97.1c-14.6,0-26.5-11.7-26.5-26.2c0-3.2,0.6-6.4,1.8-9.4c0.1-0.3,0.4-0.4,0.6-0.4h48.2
                                             c0.3,0,0.5,0.2,0.6,0.4c1.2,3,1.8,6.2,1.8,9.4C87.5,85.3,75.6,97.1,61,97.1z M37.4,62.4c-1,2.7-1.5,5.6-1.5,8.5
                                             c0,13.7,11.3,24.8,25.2,24.8c13.9,0,25.2-11.1,25.2-24.8c0-2.9-0.5-5.8-1.5-8.5H37.4z"/>
                                       </g>
                                       <g>
                                          <path class="st0" d="M47.7,85.5c-2.1,0-3.9-1.7-3.9-3.9c0-2.1,1.7-3.9,3.9-3.9c2.1,0,3.9,1.7,3.9,3.9
                                             C51.5,83.8,49.8,85.5,47.7,85.5z M47.7,79.1c-1.4,0-2.5,1.1-2.5,2.5c0,1.4,1.1,2.5,2.5,2.5c1.4,0,2.5-1.1,2.5-2.5
                                             C50.2,80.2,49.1,79.1,47.7,79.1z"/>
                                       </g>
                                       <g>
                                          <path class="st0" d="M55.9,81.9c-2.1,0-3.9-1.7-3.9-3.9c0-2.1,1.7-3.9,3.9-3.9c2.1,0,3.9,1.7,3.9,3.9C59.8,80.1,58,81.9,55.9,81.9
                                             z M55.9,75.5c-1.4,0-2.5,1.1-2.5,2.5c0,1.4,1.1,2.5,2.5,2.5c1.4,0,2.5-1.1,2.5-2.5C58.4,76.6,57.3,75.5,55.9,75.5z"/>
                                       </g>
                                       <g>
                                          <path class="st0" d="M55.3,90.4c-2.1,0-3.9-1.7-3.9-3.9s1.7-3.9,3.9-3.9c2.1,0,3.9,1.7,3.9,3.9S57.4,90.4,55.3,90.4z M55.3,84
                                             c-1.4,0-2.5,1.1-2.5,2.5c0,1.4,1.1,2.5,2.5,2.5c1.4,0,2.5-1.1,2.5-2.5C57.8,85.1,56.7,84,55.3,84z"/>
                                       </g>
                                       <g>
                                          <path class="st0" d="M72.9,62.4h-4.8c-0.2,0-0.4-0.1-0.6-0.3c-0.1-0.2-0.1-0.4,0-0.7l11.9-25c1.4-3,4.3-4.6,6.8-3.8l11,3.6
                                             c0.2,0.1,0.3,0.2,0.4,0.3c0.1,0.2,0.1,0.3,0,0.5l-1.5,4.5c-0.1,0.4-0.5,0.5-0.8,0.4l-7.5-2.4c-1.9-0.6-4.1,0.7-5.2,3.1L73.5,62
                                             C73.4,62.2,73.1,62.4,72.9,62.4z M69.2,61h3.3l9.1-19c1.4-3,4.3-4.6,6.8-3.8l6.9,2.2l1-3.2l-10.4-3.4l0,0
                                             c-1.9-0.6-4.1,0.7-5.2,3.1L69.2,61z"/>
                                       </g>
                                       <g>
                                          <path class="st0" d="M85,39.9c-0.3,0-0.6-0.2-0.6-0.5l-1.7-5.8c0-0.1,0-0.1,0-0.2c0-0.3,0.2-0.6,0.5-0.7c0.4-0.1,0.7,0.1,0.8,0.5
                                             l1.7,5.8c0,0.1,0,0.1,0,0.2c0,0.3-0.2,0.6-0.5,0.7C85.2,39.9,85.1,39.9,85,39.9z"/>
                                       </g>
                                       <g>
                                          <path class="st0" d="M82.7,41.7c-0.1,0-0.1,0-0.2,0c-0.3-0.1-0.8-0.3-2.5-5.8c-0.1-0.3,0.1-0.7,0.4-0.8c0.3-0.1,0.7,0.1,0.9,0.4
                                             l2.1,5.3c0.1,0.2,0,0.5-0.1,0.7C83,41.6,82.9,41.7,82.7,41.7z"/>
                                       </g>
                                       <g>
                                          <path class="st0" d="M81,45.4c-0.3,0-0.5-0.2-0.6-0.4l-2.2-5.4c0-0.1,0-0.2,0-0.3c0-0.3,0.2-0.5,0.4-0.6c0.3-0.1,0.7,0,0.9,0.4
                                             l2.2,5.4c0,0.1,0,0.2,0,0.3c0,0.3-0.2,0.5-0.4,0.6C81.1,45.4,81.1,45.4,81,45.4z"/>
                                       </g>
                                       <g>
                                          <path class="st0" d="M61,94.1c-0.4,0-0.7-0.3-0.7-0.7c0-0.4,0.3-0.7,0.7-0.7c11,0,19.9-8.8,19.9-19.6c0-0.4,0.3-0.7,0.7-0.7
                                             c0.4,0,0.7,0.3,0.7,0.7C82.3,84.7,72.8,94.1,61,94.1z"/>
                                       </g>
                                       <g>
                                          <path class="st0" d="M25,48.5c-0.8,0-1.6-0.3-2.2-1c-0.7-0.8-0.8-2-0.3-3l9.9-18c1.6-3,5.6-4.4,8.8-3.2c5.3,2.1,12.8,5.3,19,8.5
                                             c0.9,0.5,1.5,1.4,1.4,2.5c-0.1,1.1-0.8,2.1-1.9,2.5c-1.4,0.5-2.6,1.2-3.4,2.1c-0.8,0.8-1.9,1.2-2.8,1c-2.7-0.5-7.1,1.3-9,3.2
                                             c-0.7,0.7-1.7,1-2.6,0.9c-2.2-0.3-6.4,0.3-8.9,2.8c-0.9,0.9-2,1.3-3.1,1c-1.1-0.3-2.4-0.2-3.8,0.3C25.7,48.4,25.4,48.5,25,48.5z
                                             M38.7,24.3c-2.1,0-4.1,1.1-5.1,2.9l-9.9,18c-0.3,0.5-0.2,1,0.1,1.4c0.3,0.4,1,0.7,1.8,0.4c1.7-0.6,3.2-0.7,4.6-0.4
                                             c0.6,0.1,1.3-0.1,1.8-0.7c3.1-3.1,7.9-3.5,10-3.2c0.6,0.1,1.1-0.1,1.5-0.5c2.2-2.2,7.1-4.2,10.2-3.6c0.6,0.1,1.2-0.2,1.6-0.6
                                             c1-1,2.3-1.8,3.9-2.4c0.7-0.3,1-0.9,1.1-1.3c0-0.5-0.2-0.9-0.7-1.2l0,0c-6.1-3.2-13.7-6.3-18.9-8.4C40.1,24.4,39.4,24.3,38.7,24.3
                                             z"/>
                                       </g>
                                       <g>
                                          <path class="st0" d="M50.9,62.4c-0.3,0-0.5-0.2-0.6-0.4l-6.8-19c0-0.1,0-0.2,0-0.2c0-0.3,0.2-0.5,0.4-0.6c0.3-0.1,0.7,0.1,0.9,0.4
                                             l6.8,19c0,0.1,0,0.2,0,0.2c0,0.3-0.2,0.5-0.4,0.6C51,62.4,50.9,62.4,50.9,62.4z"/>
                                       </g>
                                    </g>
                                 </svg>