   <svg version="1.1" id="Calque_4" xmlns="http://www.w3.org/2000/svg" xmlns:xlink="http://www.w3.org/1999/xlink" x="0px" y="0px"
                                    viewBox="0 0 120 120" style="enable-background:new 0 0 120 120;" xml:space="preserve">
                                    <style type="text/css">
                                       .st0{fill:#ec6813 ;}
                                    </style>
                                    <g>
                                       <path class="st0" d="M49.3,54.2c2.1,0,3.6-0.3,3.8-0.3c0,0,0,0,0.1,0c0.2,0,0.4-0.1,0.5-0.3c0.1-0.1,0.2-0.3,0.3-0.5c0,0,0,0,0-0.1
                                          c0.1-0.3,1.6-8.5-2.6-12.7c-0.8-0.8-1.7-1.4-2.7-1.8c0,0,0,0,0,0c-4.3-1.9-9.7-0.9-10-0.8c-0.4,0.1-0.8,0.4-0.8,0.8
                                          c-0.1,0.3-1.6,8.5,2.6,12.7C42.8,53.7,46.5,54.2,49.3,54.2z M49.8,41.9c2.3,2.3,2.4,6.2,2.3,8.6l-2.8-2.8l0-6.2
                                          C49.4,41.6,49.6,41.7,49.8,41.9z M39.7,39.7c1.4-0.2,4.7-0.4,7.4,0.6l0,5.3l-2.9-2.9c-0.4-0.4-1.1-0.4-1.5,0
                                          c-0.4,0.4-0.4,1.1,0,1.5l0.5,0.5h-3.5C39.4,42.7,39.6,40.7,39.7,39.7z M45.4,46.9l5.2,5.2c-2.4,0.2-6.4,0-8.6-2.3
                                          c-0.8-0.8-1.3-1.8-1.7-2.9H45.4z"/>
                                       <path class="st0" d="M66.1,42.4c0,0.2,0.1,0.4,0.3,0.5c0.1,0.1,0.3,0.2,0.5,0.3c0,0,0,0,0.1,0c0.1,0,1.7,0.3,3.8,0.3
                                          c2.8,0,6.5-0.5,8.9-3c0.8-0.8,1.4-1.7,1.8-2.7c0,0,0,0,0,0c1.9-4.3,0.9-9.7,0.8-10c-0.1-0.4-0.4-0.8-0.8-0.8
                                          c-0.3-0.1-8.5-1.6-12.7,2.6C64.5,33.8,66,42,66.1,42.4C66.1,42.3,66.1,42.3,66.1,42.4z M78.1,39c-2.3,2.3-6.2,2.4-8.6,2.3l2.8-2.8
                                          l6.2,0C78.4,38.6,78.3,38.8,78.1,39z M77.3,32c-0.4-0.4-1.1-0.4-1.5,0l-0.5,0.5V29c2-0.3,4-0.1,5,0c0.2,1.4,0.4,4.7-0.6,7.4l-5.3,0
                                          l2.9-2.9C77.7,33,77.7,32.4,77.3,32z M70.2,31.1c0.8-0.8,1.8-1.3,2.9-1.7v5.2l-2,2c0,0,0,0,0,0L68,39.8
                                          C67.8,37.3,68,33.4,70.2,31.1z"/>
                                       <path class="st0" d="M50.5,36.6c0.6,0.6,1.4,0.9,2.2,0.9c0.8,0,1.6-0.3,2.2-0.9c0,0,0,0,0,0c0.3-0.3,0.6-0.7,1.1-1.3l1.6,2.3
                                          c0.5,0.7,1.3,1.1,2.1,1.2c0.1,0,0.2,0,0.2,0c0.8,0,1.5-0.3,2-0.8l1.1-1.1c0.6-0.6,0.9-1.4,0.8-2.3c-0.1-0.9-0.5-1.6-1.2-2.1
                                          l-2.3-1.6c0.5-0.4,0.9-0.7,1.3-1.1c0,0,0,0,0,0c0,0,0,0,0,0c0,0,0,0,0,0c0,0,0,0,0,0c0.6-0.6,0.9-1.4,0.9-2.2
                                          c0-0.8-0.3-1.6-0.9-2.2l-1.2-1.2c-1.9-1.9-6.5-1.6-9.7,1.5c-1.4,1.4-2.3,3.2-2.6,5.1c-0.3,1.9,0.1,3.6,1.1,4.5L50.5,36.6z
                                          M61.5,34.2c0.2,0.2,0.3,0.4,0.3,0.6c0,0.1,0,0.4-0.2,0.6l-1.1,1.1c-0.2,0.2-0.5,0.2-0.6,0.2c-0.1,0-0.4-0.1-0.6-0.3l-2-2.8
                                          c0.2-0.2,0.4-0.5,0.6-0.7c0.2-0.2,0.5-0.4,0.7-0.6L61.5,34.2z M50.4,31.2c0.2-1.4,1-2.9,2-3.9c2.3-2.3,5.6-2.5,6.6-1.5l1.2,1.2
                                          c0.2,0.2,0.3,0.4,0.3,0.7c0,0.3-0.1,0.5-0.3,0.7c0,0,0,0,0,0c0,0,0,0,0,0c-0.3,0.3-0.9,0.7-1.4,1.2c-0.7,0.6-1.6,1.2-2.3,1.9
                                          c-0.8,0.8-1.5,1.8-2.1,2.5c-0.4,0.5-0.7,0.9-1,1.2c0,0,0,0,0,0c-0.4,0.4-1,0.4-1.3,0l-1.2-1.2C50.4,33.4,50.2,32.4,50.4,31.2z"/>
                                       <path class="st0" d="M70.5,44.9C70.5,44.9,70.5,44.9,70.5,44.9l-7.4,7.4c0,0,0,0,0,0c0,0,0,0,0,0L58,57.4c0,0,0,0,0,0c0,0,0,0,0,0
                                          l-2.3,2.3c-0.4,0.4-0.4,1.1,0,1.5c2.2,2.2,5.1,3.4,8.2,3.4c3.1,0,6-1.2,8.2-3.4c4.5-4.5,4.5-11.9,0-16.4
                                          C71.6,44.5,70.9,44.5,70.5,44.9z M68.9,49.6c0.5,0.7,0.9,1.6,1,2.4h-3.4L68.9,49.6z M69.9,54.1c-0.2,0.9-0.5,1.7-1,2.4l-2.4-2.4
                                          H69.9z M64.9,55.7l2.4,2.4c-0.7,0.5-1.6,0.8-2.4,1V55.7z M62.8,55.7V59c-0.9-0.1-1.7-0.5-2.4-1L62.8,55.7z M70.5,59.7
                                          c-1.8,1.8-4.2,2.8-6.7,2.8c-2.2,0-4.2-0.8-5.8-2.1l0.8-0.8c1.5,1.1,3.2,1.7,5,1.7c0,0,0,0,0,0c0,0,0,0,0,0c2.1,0,4.2-0.8,5.8-2.4
                                          c1.6-1.6,2.4-3.6,2.4-5.8c0-1.8-0.6-3.6-1.7-5l0.8-0.8C74.1,50.9,73.9,56.3,70.5,59.7z"/>
                                       <path class="st0" d="M95.9,69.7h-3.1c0.4-1.2,0.6-2.3,0.6-3.4c0-1.4-0.3-2.8-0.8-4.1c0,0,0,0,0,0c-2.2-5.8-8.3-10-8.6-10.2
                                          c0,0,0,0-0.1,0c-0.2-0.1-0.3-0.2-0.5-0.2c0,0,0,0,0,0c-0.2,0-0.4,0.1-0.5,0.2c0,0,0,0-0.1,0c-0.4,0.3-9.4,6.4-9.4,14.3
                                          c0,1.1,0.2,2.3,0.6,3.4H60.9c-0.4-3.2-2.7-5.9-5.8-6.8c-1.2-2.7-4.2-4.2-7.1-3.6c-1-2.3-3.3-3.9-5.9-3.9c-2.5,0-4.7,1.4-5.8,3.6
                                          c-5.4,0.2-9.7,4.6-9.7,10c0,0.2,0,0.5,0,0.7h-2.6c-0.6,0-1.1,0.5-1.1,1.1c0,10.9,8.3,20.6,22.2,26.1c0.1,0.1,0.3,0.1,0.4,0.1
                                          l28.7,0c0.1,0,0.3,0,0.4-0.1c13.9-5.5,22.2-15.2,22.2-26.1C96.9,70.2,96.5,69.7,95.9,69.7z M91.2,66.3c0,1.1-0.2,2.2-0.7,3.4h-4.6
                                          l5.1-5.1C91.1,65.1,91.2,65.7,91.2,66.3z M84.4,55c1.8,1.5,4.5,4.1,5.9,7.3l-5.9,5.9V55z M82.2,55v8.7L78,59.4
                                          C79.4,57.6,81,56,82.2,55z M75.4,66.3c0-1.8,0.6-3.4,1.4-5l5.4,5.4v3h-6.1C75.7,68.5,75.4,67.4,75.4,66.3z M28.8,69
                                          c0-4.4,3.5-7.9,7.9-7.9c0,0,0,0,0,0c0,0,0.2,0,0.3,0c0.5,0,0.9-0.3,1-0.7c0.6-1.7,2.2-2.9,4.1-2.9c2,0,3.7,1.4,4.2,3.3
                                          c0.1,0.3,0.3,0.6,0.5,0.7c0.3,0.1,0.6,0.2,0.9,0c2.3-0.9,4.8,0.4,5.6,2.6c0.1,0.4,0.4,0.6,0.8,0.7c2.4,0.5,4.3,2.5,4.7,4.9
                                          c-0.7,0-1.5,0-2.2,0c-4-1.2-5.9-3.1-6.3-6.2c-0.1-0.6-0.6-1-1.2-0.9c-0.6,0.1-1,0.6-0.9,1.2c0.4,2.7,1.6,4.4,3.1,5.7
                                          c-1.1-0.1-2.1-0.2-3.2-0.4c-2.6-2.2-5.1-6-4.9-8.8c0-0.6-0.4-1.1-1-1.1c-0.6-0.1-1.1,0.4-1.1,1c-0.1,2.6,1.4,5.7,3.4,8.1
                                          c-3.2-0.8-6.7-2.2-10.4-4.3c-0.5-0.3-1.2-0.1-1.5,0.4c-0.3,0.5-0.1,1.2,0.4,1.5c3.1,1.8,6,3,8.8,3.9H28.9
                                          C28.8,69.4,28.8,69.2,28.8,69z M74.1,94.8l-28.3,0c-6.2-2.5-19.9-9.5-20.6-23h69.5C94.1,85.3,80.3,92.3,74.1,94.8z"/>
                                       <path class="st0" d="M81.5,87.9c0.2,0,0.5-0.1,0.6-0.2c4.7-3.6,8-7.7,10.1-12.3c0.2-0.5,0-1.2-0.6-1.4c-0.5-0.2-1.2,0-1.4,0.6
                                          c-1.9,4.3-5,8.1-9.4,11.4c-0.5,0.4-0.6,1-0.2,1.5C80.9,87.7,81.2,87.9,81.5,87.9z"/>
                                       <path class="st0" d="M72.6,92.2c0.2,0.4,0.6,0.6,1,0.6c0.2,0,0.3,0,0.5-0.1c1.6-0.8,3.1-1.6,4.5-2.5c0.5-0.3,0.7-1,0.4-1.5
                                          c-0.3-0.5-1-0.7-1.5-0.3c-1.4,0.8-2.8,1.6-4.3,2.4C72.5,91,72.3,91.6,72.6,92.2z"/>
                                    </g>
                                 </svg>