<svg version="1.1" xmlns="http://www.w3.org/2000/svg" xmlns:xlink="http://www.w3.org/1999/xlink" x="0px" y="0px" viewBox="0 0 120 120" style="enable-background:new 0 0 120 120;" xml:space="preserve">
<style type="text/css">
                                       .epeci .st0{display:none;}
                                       .epeci  .st1{display:inline;}
                                       .epeci .st2{fill:#A5A5A5;stroke:#A5A5A5;stroke-width:0.5;stroke-miterlimit:10;}
                                       .epeci .st3{fill:#A5A5A5;}
                                       .epeci .st4{fill:#A5A5A5;stroke:#A5A5A5;stroke-width:0.25;stroke-miterlimit:10;}
                                       .epeci .st5{fill:none;stroke:#A5A5A5;stroke-width:2;stroke-miterlimit:10;}
                                       .epeci .st6{fill:none;}
                                
                                       path {
                                           color: #ec6813 !important;
    stroke: #ec6813 !important;
    fill: #ec6813;
                                       }
                                    </style>
                                    <g id="Calque_1" class="st0">
                                       <g class="st1">
                                          <g>
                                             <rect x="17.1" y="60.6" class="st2" width="28.4" height="2.1"></rect>
                                             <rect x="6.6" y="60.6" class="st2" width="4.2" height="2.1"></rect>
                                             <path class="st2" d="M95.5,25.4l-33.7,0.1l-0.1,0.1c-1.8,0.6-12.2,4.4-12.2,12.4c0,2.7,1.9,3.9,3.8,3.9h4.5l-0.1,0.3l-3,10.2
                                                H32.8v2.1h21.4l-1.3,6.9l2.1,0.4l5.8-24.7l0.9,55.4H51.5l1.8-21.7l-0.5-1l-0.6-0.2H21.2v2.1h29.8l-2,22.8h64.3L95.5,25.4z
                                                M56.1,39.8c0.4-0.8,0.7-1.7,0.8-2.4h1.7l-0.4,2.4H56.1z M59,35.3h-3L55,36.2c-0.2,1.5-0.9,3.6-1.7,3.6c-1.1,0-1.7-0.6-1.7-1.7
                                                c0-5.2,6-8.4,9.1-9.8L59,35.3z M63.9,92.5L63,42.9l0.1-15.3l31-0.1l16.8,64.9H63.9z"></path>
                                             <rect x="12.6" y="69.6" class="st2" width="4.4" height="2.1"></rect>
                                             <rect x="24.1" y="52.4" class="st2" width="5.2" height="2.1"></rect>
                                          </g>
                                          <g>
                                             <path class="st3" d="M67.5,69.7L85,64.9c0,0,0.6-0.2,0.7-0.1C85.8,64.8,85,65,85,65l-17.3,5.3C67.7,70.4,67.4,70.3,67.5,69.7z"></path>
                                             <path class="st3" d="M100.7,70.6l-17.9-3c0,0-0.6-0.1-0.7-0.2s0.7,0,0.7,0l17.9,2.4C100.7,69.9,101,70.1,100.7,70.6z"></path>
                                             <path class="st3" d="M77.8,67.7l8.1-2.6c0,0,0.1-0.1,0.1-0.1c0.1,0,5.1-0.3,5.1-0.3s-0.2,1.9-1.4,3.4c-1.5-0.2-7.3-1-7.3-1
                                                s-0.6-0.2-0.7,0.3c-0.1,0.5,0.6,0.7,0.8,0.7c0.2,0,6.3,1.1,6.3,1.1s-1.6,1.6-4.7,1.7C80.8,70.8,78.6,68.8,77.8,67.7z"></path>
                                             <path class="st3" d="M89,61.1c0,0.2,0.2,0.7,0.7,0.6c0,0,0.1-0.7,0.3-1c0.1-0.3,0.3-1.3,0.2-1.8l-0.4,0
                                                C89.7,58.9,89.9,61.1,89,61.1"></path>
                                             <path class="st3" d="M87.6,62.3c0.6-0.7,0.2,0.1,0.1,0.1c0,0.1-1.6,1.8-2.4,1.5C85.4,63.7,86.4,63.6,87.6,62.3 M83.4,64.9
                                                l2.1-0.6c0,0,0.1,0,0.1,0c0.1,0,0.1,0,0.2,0c0.2,0.1,0.3,0.2,0.3,0.4c0,0.1,0,0.1,0,0.1c1-0.2,2.1-0.7,3.1-1.6
                                                c1-0.9,0.6-1.5,0.6-1.5c-0.1,0-0.3,0.1-0.6-0.1c-0.4-0.2-0.4-0.7-0.4-0.7c-0.5,0-2,1.5-2.9,2.2c-0.9,0.7-2.9,0.8-2.9,1.1
                                                C82.8,64.6,83,64.8,83.4,64.9"></path>
                                             <path class="st3" d="M84.6,57.6c-0.1,0-0.1-0.1-0.1-0.1c-0.5-0.3-0.9-0.5-1.4-0.8c0,0-0.1,0-0.1-0.1c-0.2-0.1-0.3,0-0.3,0.1
                                                c-0.1,0.2-0.1,0.4-0.2,0.6c0,0.1,0,0.2,0.2,0.2c0,0,0,0,0.1,0C83.4,57.7,84,57.7,84.6,57.6C84.6,57.6,84.6,57.6,84.6,57.6"></path>
                                             <path class="st3" d="M84.7,58C84.7,58,84.6,58,84.7,58c-0.6,0.3-1,0.6-1.5,0.9c-0.3,0.2-0.3,0.3-0.1,0.5c0.1,0.1,0.2,0.2,0.4,0.3
                                                c0.1,0.1,0.2,0.1,0.2,0c0,0,0.1-0.1,0.1-0.1C84.1,59,84.4,58.5,84.7,58C84.7,58,84.7,58,84.7,58"></path>
                                             <path class="st3" d="M84.8,58c0,0.1,0,0.1-0.1,0.1c-0.3,0.5-0.6,1-0.8,1.4c-0.2,0.3-0.2,0.4,0.2,0.5c0.2,0,0.3,0.1,0.5,0.1
                                                c0.1,0,0.2,0,0.2-0.1c0,0,0-0.1,0-0.1C84.8,59.3,84.8,58.7,84.8,58C84.9,58.1,84.8,58.1,84.8,58"></path>
                                             <path class="st3" d="M84.6,57.8c-0.6,0-1.2,0-1.8,0c-0.2,0-0.3,0.1-0.2,0.3c0,0.2,0.1,0.4,0.2,0.6c0,0.1,0.1,0.2,0.2,0.1
                                                c0,0,0,0,0,0C83.5,58.5,84.1,58.1,84.6,57.8C84.6,57.8,84.6,57.8,84.6,57.8"></path>
                                             <path class="st3" d="M85,58c0,0.1,0,0.3,0,0.4c0,0.5,0,0.9,0,1.4c0,0,0,0.1,0,0.1c0,0.1,0.1,0.1,0.2,0.1c0.2-0.1,0.5-0.1,0.7-0.2
                                                c0.1,0,0.1-0.1,0.1-0.2c0,0,0-0.1,0-0.1C85.6,59.1,85.3,58.6,85,58C85,58,85,58,85,58"></path>
                                             <path class="st3" d="M85.1,57.9c0.1,0.2,0.2,0.3,0.3,0.5c0.2,0.4,0.4,0.7,0.6,1.1c0,0,0,0.1,0.1,0.1c0.1,0.1,0.1,0.1,0.2,0
                                                c0.2-0.2,0.3-0.3,0.5-0.5c0.1-0.1,0.1-0.1,0-0.2c0,0-0.1-0.1-0.1-0.1C86.2,58.6,85.7,58.3,85.1,57.9C85.2,58,85.2,58,85.1,57.9"></path>
                                             <path class="st3" d="M85.1,60.5c-0.5,0-1.1-0.1-1.6-0.4c-1.3-0.8-1.7-2.4-1-3.7l0,0l0,0c0,0,0.1,0,0.1,0.1
                                                c0.1,0.1,0.1,0.1,0.4,0.3l0,0c-0.2-0.1-0.3-0.2-0.4-0.3c0,0-0.1,0-0.1-0.1c-0.7,1.3-0.3,2.9,1,3.7c1.3,0.7,2.9,0.3,3.7-0.9
                                                c0,0-0.1,0-0.1,0c-0.1,0-0.2-0.1-0.5-0.2l0,0c0.2,0.1,0.4,0.1,0.4,0.2c0.1,0,0.1,0,0.2,0.1l0,0l0,0C86.8,60,85.9,60.4,85.1,60.5z
                                                "></path>
                                             <path class="st3" d="M81.7,53.4c-0.2-0.1-0.3-0.3-0.3,0c0,0.2,0,0.3,0,0.3c0,0.1,0,0.2,0.2,0.1C81.8,53.7,81.8,53.5,81.7,53.4
                                                M80.9,53.1c-0.3,0-0.5,0-0.3,0.2c0.2,0.2,0.2,0.5,0.2,0.7c0.1-0.1,0.4-0.1,0.4-0.4C81.2,53.2,81.2,53,80.9,53.1 M80.3,53.3
                                                c-0.3,0-0.7,0.6-0.7,0.7c0.2-0.1,0.5,0,0.9,0.4c0.1,0.1,0.2-0.2,0.2-0.2S80.6,53.3,80.3,53.3 M79.4,54.3
                                                c-0.1,0.3-0.3,0.7-0.2,1.1c0.1-0.1,0.7-0.7,1.1-0.6c0.2,0.1,0.2-0.2,0.2-0.3c0-0.1-0.4-0.3-0.5-0.4C79.8,54.1,79.5,54,79.4,54.3
                                                M79.2,55.9c0.1,0.3,0.3,0.7,0.4,0.8c0.1-0.2,0.2-0.8,0.7-1.1c0.1-0.1,0-0.2,0-0.4c0-0.1-0.1-0.3-0.4-0.2
                                                C79.5,55.2,79.1,55.6,79.2,55.9 M80.2,57c0.1,0,0.6-0.4,0.6-1c0-0.3-0.3-0.4-0.4-0.4c-0.2,0-0.6,0.5-0.8,1
                                                C79.7,56.8,80.1,57,80.2,57 M82.9,53.3c-0.1,0.1-0.2,0.2,0,0.3c0.1,0.1,0,0.3-0.1,0.5c-0.1,0.2-0.4,0.2-0.7,0
                                                c-0.3-0.2-0.8-0.2-1.2,0.1c-0.4,0.4-0.4,1-0.3,1.1c0.1,0.1,0.4,0.4,0.4,0.7c0,0.8-0.6,1.2-0.8,1.2c-0.1,0-0.5-0.2-0.6-0.3
                                                c-0.1-0.1-0.8-0.8-0.6-1.8c0.2-1,0.8-1.8,1.5-2.1c0.7-0.3,1.2,0.3,1.3,0.4c0.1,0.1,0.7-0.2,0.9-0.3C82.9,53,83,53.1,82.9,53.3"></path>
                                             <path class="st3" d="M85.9,53.7c0.2,0.1,0.3,0.3,0.1,0.3c-0.2,0-0.2,0.1-0.2,0.1c-0.1,0-0.1,0-0.1-0.2
                                                C85.6,53.6,85.7,53.6,85.9,53.7 M86.4,54.3c0.1,0.3,0.2,0.5-0.1,0.4c-0.2-0.1-0.4-0.1-0.6-0.1c0-0.1-0.1-0.4,0.1-0.5
                                                C86.2,54.1,86.3,54,86.4,54.3 M86.5,54.9c0.1,0.2-0.2,0.7-0.2,0.8c0-0.2-0.2-0.5-0.6-0.7c-0.1,0,0.1-0.2,0.1-0.2
                                                S86.4,54.7,86.5,54.9 M86,56c-0.2,0.2-0.4,0.4-0.7,0.4c0.1-0.1,0.3-0.8,0-1.1c-0.1-0.2,0.1-0.2,0.2-0.3c0.1-0.1,0.4,0.3,0.5,0.4
                                                C86,55.6,86.2,55.8,86,56 M85,56.5c-0.3,0-0.7-0.2-0.8-0.2c0.2-0.1,0.5-0.4,0.6-0.9c0-0.1,0.2-0.1,0.3-0.1c0.1,0,0.2,0,0.3,0.4
                                                C85.3,56,85.2,56.5,85,56.5 M83.7,55.7c0-0.1,0.1-0.7,0.5-0.8c0.2-0.1,0.4,0.2,0.4,0.3c0.1,0.2-0.1,0.7-0.5,0.9
                                                C84,56.2,83.7,55.8,83.7,55.7 M85.4,52.5c-0.1,0.1-0.1,0.2-0.2,0.1c-0.1-0.1-0.2,0.1-0.3,0.2c-0.1,0.1,0,0.4,0.3,0.7
                                                c0.3,0.3,0.5,0.7,0.4,1.1c-0.1,0.4-0.6,0.5-0.7,0.5c-0.1,0-0.5-0.3-0.7-0.2c-0.6,0.2-0.6,0.8-0.6,0.9c0,0.1,0.4,0.4,0.5,0.5
                                                c0.1,0.1,0.9,0.6,1.6,0.2c0.7-0.4,1.1-1.1,1-1.8c-0.1-0.7-0.7-1.1-0.8-1.2c-0.1-0.1-0.1-0.7-0.1-0.9
                                                C85.6,52.5,85.5,52.4,85.4,52.5"></path>
                                             <path class="st3" d="M88.1,57.7c0.1,0,0.3,0,0.2,0.1c-0.1,0.1-0.1,0.1-0.1,0.1c0,0-0.1,0.1-0.2,0C87.9,57.8,88,57.7,88.1,57.7
                                                M88.6,57.8c0.2,0.1,0.3,0.1,0.1,0.2c-0.2,0.1-0.3,0.2-0.3,0.2c-0.1-0.1-0.2-0.2-0.1-0.3C88.4,57.7,88.4,57.7,88.6,57.8 M88.9,58
                                                c0.2,0.1,0.2,0.5,0.2,0.5c-0.1-0.1-0.3-0.1-0.6-0.1c0,0,0-0.1,0-0.1S88.8,57.9,88.9,58 M89.2,58.8c0,0.2,0,0.4-0.2,0.5
                                                c0-0.1-0.2-0.5-0.5-0.6c-0.2,0-0.1-0.2,0-0.2c0-0.1,0.3,0,0.4,0C89,58.5,89.2,58.6,89.2,58.8 M88.8,59.5
                                                c-0.2,0.1-0.4,0.2-0.5,0.2c0-0.1,0.1-0.4-0.1-0.7c0-0.1,0.1-0.1,0.1-0.2c0,0,0.1-0.1,0.3,0.1C88.8,59.1,89,59.4,88.8,59.5
                                                M87.9,59.6c-0.1,0-0.3-0.4-0.1-0.6c0.1-0.1,0.3-0.1,0.3-0.1c0.1,0,0.2,0.4,0.1,0.7C88.2,59.7,87.9,59.7,87.9,59.6 M87.4,57.3
                                                c0,0.1,0,0.1-0.1,0.1c-0.1,0-0.1,0.1-0.1,0.2c0,0.1,0.2,0.2,0.4,0.2c0.2,0,0.5,0.1,0.7,0.4c0.1,0.3-0.1,0.5-0.2,0.6
                                                c-0.1,0-0.4,0-0.4,0.2c-0.2,0.4,0,0.7,0.1,0.7c0.1,0,0.4,0,0.5,0c0.1,0,0.7-0.1,0.9-0.6c0.2-0.5,0.1-1-0.3-1.3
                                                c-0.3-0.3-0.8-0.2-0.9-0.2c-0.1,0-0.4-0.3-0.4-0.4C87.5,57.2,87.4,57.2,87.4,57.3"></path>
                                             <path class="st3" d="M79.6,64c0,0.1,0,0.2,0.1,0.2c0.1-0.1,0.1-0.1,0.2-0.1c0,0,0.1,0,0-0.1C79.7,63.9,79.6,63.9,79.6,64
                                                M79.7,64.5c0.1,0.2,0.1,0.3,0.2,0.1c0.1-0.1,0.2-0.2,0.3-0.3c-0.1,0-0.2-0.2-0.3-0.1C79.6,64.3,79.6,64.3,79.7,64.5 M79.9,64.8
                                                c0.1,0.1,0.5,0.2,0.6,0.2c-0.1-0.1-0.1-0.3-0.1-0.6c0,0-0.2,0-0.2,0S79.9,64.6,79.9,64.8 M80.8,65c0.2,0,0.4,0,0.6-0.2
                                                c-0.1,0-0.6-0.2-0.6-0.4c0-0.1-0.2,0-0.2,0c-0.1,0-0.1,0.3,0,0.4C80.5,64.8,80.5,65,80.8,65 M81.6,64.7c0.1-0.1,0.3-0.4,0.3-0.4
                                                c-0.1,0-0.5,0.1-0.8-0.1c-0.1,0-0.1,0.1-0.2,0.1c-0.1,0-0.1,0.1,0.1,0.3C81.1,64.7,81.4,64.8,81.6,64.7 M81.8,63.9
                                                c0,0-0.4-0.2-0.7-0.1c-0.2,0.1-0.1,0.3-0.1,0.3c0,0.1,0.4,0.2,0.7,0.1C81.9,64.2,81.8,63.9,81.8,63.9 M79.2,63.4
                                                c0.1,0,0.1,0,0.2-0.1c0-0.1,0.1-0.1,0.3-0.1c0.1,0,0.2,0.1,0.2,0.4c0,0.2,0.1,0.5,0.4,0.6c0.3,0.1,0.6-0.1,0.6-0.1
                                                c0-0.1,0.1-0.3,0.2-0.4c0.4-0.2,0.8,0,0.8,0.1c0.1,0.1,0,0.3,0,0.4c0,0.1-0.2,0.6-0.7,0.8c-0.6,0.2-1.1,0.1-1.5-0.2
                                                c-0.3-0.3-0.2-0.7-0.2-0.8c0-0.1-0.3-0.3-0.4-0.4C79,63.5,79.1,63.4,79.2,63.4"></path>
                                             <path class="st3" d="M82,61.8L82,61.8C82,61.8,82,61.8,82,61.8z M85.9,61.7c-0.4,0-0.8,0.2-1.2,0.4c-0.2,0.1-0.4,0.3-0.7,0.2
                                                c-0.1,0-0.3,0-0.5,0c-0.1,0-0.3,0-0.4,0c0-0.2,0.1-0.3-0.2-0.4c0.1-0.3,0.5-0.4,0.6-0.2c0,0-0.1-0.1-0.1-0.1
                                                c-0.2,0-0.4,0-0.5,0.1c0.1-0.1,0.1-0.1,0.2-0.2c-0.3,0.1-0.4,0.3-0.3,0.7c-0.1-0.1-0.3-0.2-0.3-0.4c0-0.1,0-0.1-0.1-0.2
                                                c0.1-0.2,0.3-0.3,0.6-0.3c-0.2-0.1-0.2-0.1-0.6,0.2c0.1-0.1,0.1-0.1,0.1-0.2c-0.3,0.1-0.3,0.4-0.3,0.6c-0.1-0.1-0.2-0.2-0.1-0.3
                                                c0-0.1,0-0.2,0-0.2c-0.1-0.1-0.1-0.1,0-0.2c0.1-0.1,0.3-0.2,0.4-0.3c0.1,0,0.2-0.1,0.2,0.1c0,0,0,0,0.1-0.1c0-0.1,0-0.2-0.1-0.2
                                                c-0.2-0.1-0.4,0.1-0.6,0.2c0.1-0.1,0.1-0.1,0.1-0.2c-0.2,0.1-0.4,0.4-0.3,0.7c0,0.1,0,0.2,0,0.3l0,0c0,0,0,0,0,0c0,0,0,0,0,0
                                                c0,0.2-0.2,0.3-0.4,0.4c-0.1,0-0.1,0.1-0.2,0.1c-0.1,0.1-0.2,0.2-0.3,0.4c0.2,0.2,0.3,0.4,0.6,0.4c0.1,0.2,0.5,0.3,0.7,0.1
                                                c0.1-0.1,0.1-0.2,0.2-0.3c0,0.1,0,0.1-0.2,0.5c0.1,0,0.2,0,0.3,0c0.6-0.1,1.1-0.2,1.7-0.3c0.5-0.1,0.9-0.3,1.3-0.6
                                                c0.1-0.1,0.2-0.2,0.3-0.3c0,0,0-0.1,0-0.2c0,0,0,0,0.1,0c0,0,0.1-0.1,0.1-0.2C86,61.7,86,61.7,85.9,61.7"></path>
                                             <path class="st3" d="M82.1,60.5c0.2-0.1,0.2-0.1,0.3,0.1c0-0.1,0-0.1-0.1-0.2c-0.1,0-0.2-0.1-0.2,0c-0.1,0.1-0.3,0.2-0.4,0.3
                                                c-0.1,0-0.1,0.1-0.2,0.1c0.1-0.1,0.1-0.2,0.2-0.3c-0.2,0.1-0.3,0.2-0.3,0.4c0.1,0,0.2-0.1,0.2-0.1C81.9,60.7,82,60.6,82.1,60.5"></path>
                                             <path class="st3" d="M81.5,59.2c0.1,0,0.2,0,0.4,0c-0.3-0.2-0.6-0.1-0.7,0.2c-0.1,0.3-0.2,0.6-0.4,1c0,0,0,0.1-0.1,0.1
                                                c0.1-0.3,0.1-0.6,0.1-0.9c0-0.3,0-0.6,0-0.9c0.3,0,0.5,0.1,0.7,0.1c0,0,0,0,0-0.1c-0.1,0-0.2,0-0.3-0.1c-0.6-0.1-0.6-0.1-0.6,0.4
                                                c0,0.3-0.1,0.7-0.2,1c0-0.5,0-1,0-1.6c0.4,0.1,0.7,0,1,0.1c0,0,0-0.1,0-0.1c-0.3,0-0.6-0.1-0.9-0.1c-0.1,0-0.2,0-0.2,0.2
                                                c0,0.3,0,0.5,0,0.8c0,0.2,0,0.3,0,0.5c-0.1-0.1-0.1-0.3-0.2-0.7c0-0.3,0-0.5,0-0.8c0.4-0.1,0.8-0.1,1.2-0.2c0,0,0-0.1,0-0.1
                                                c-0.4,0-0.8,0.1-1.2,0.1c0,0,0,0,0,0l0,0c0,0,0,0,0,0c0.1-0.1,0.2-0.1,0.3-0.2c0,0-0.1,0-0.1,0c0,0,0-0.1,0.1-0.1
                                                c-0.2,0.1-0.3,0.2-0.5,0.4c-0.2,0.1-0.2,0.3-0.2,0.6c0,0.2,0.1,0.4,0.1,0.6c0,0,0.1,0.1,0.1,0.1c-0.5-0.4-1-0.8-1.1-1.5
                                                c-0.1,0.2,0.1,0.7,0.6,1.3c-0.1,0-0.2,0-0.3,0c-0.1-0.2-0.3-0.4-0.6-0.5c0.2,0.1,0.4,0.3,0.5,0.4c0,0,0,0,0,0
                                                c-0.2-0.1-0.4-0.1-0.6-0.2c0,0,0,0-0.1-0.1c-0.2-0.3-0.3-0.6-0.5-1c-0.2-0.5-0.5-0.7-1-0.9c-0.4-0.1-0.8,0-1.1,0.3
                                                c-0.3,0.3-0.5,0.7-0.3,1.2c0,0,0,0,0,0c0.2,1,0.9,1.6,1.6,2.3c0.9,0.8,1.9,1.4,3,2.1c0,0,0,0,0.1,0c-0.2-0.1-0.4-0.3-0.7-0.4
                                                c-1.1-0.7-2.1-1.4-3-2.3c-0.3-0.3-0.5-0.6-0.7-0.9c0-0.1-0.1-0.1-0.1-0.2c0.9,1,1.9,1.8,3,2.5c-0.1-0.1-0.2-0.1-0.3-0.2
                                                c-0.1-0.1-0.2-0.1-0.3-0.2c-0.8-0.6-1.5-1.1-2.2-1.9c-0.3-0.4-0.5-0.8-0.3-1.3c0.2-0.6,1-0.8,1.6-0.5c0.2,0.1,0.3,0.3,0.4,0.4
                                                c0.2,0.2,0.3,0.5,0.4,0.7c0,0,0,0.1,0,0.1c-0.2-0.1-0.5-0.2-0.7-0.3c0,0,0,0.1,0,0.1c0.2,0.1,0.3,0.2,0.5,0.3
                                                c0.2,0.1,0.3,0.2,0.4,0.4c-0.2-0.3-0.6-0.5-0.9-0.7c0,0,0,0,0,0.1c0.1,0.1,0.3,0.2,0.4,0.2c0.1,0.1,0.2,0.2,0.3,0.2
                                                c0.1,0.1,0.1,0.2,0.2,0.3c-0.1,0-0.1-0.1-0.2-0.1c0,0,0,0.1,0,0.1c0.1,0.1,0.1,0.1,0.2,0.2c-0.2,0-0.3-0.1-0.4-0.2
                                                c-0.1-0.1-0.2-0.2-0.4-0.3c0,0,0,0,0,0c0.2,0.2,0.4,0.5,0.6,0.7c0.5,0.4,1,0.8,1.6,1.1c0.1,0.1,0.3,0.1,0.4,0.2c0,0,0,0.1,0,0.1
                                                c0.2,0.2,0.4,0.4,0.5,0.6c0.1,0.1,0.2,0.2,0.2,0.3c0.3,0.4,0.4,0.4,0.7-0.1c0-0.1,0.1-0.1,0.2-0.1c0.1-0.1,0.3-0.2,0.4-0.3
                                                c-0.1-0.2-0.2-0.3-0.3-0.5c0,0,0-0.1,0-0.1c0-0.2-0.1-0.2-0.2-0.3c0,0.1-0.1,0.1-0.1,0.2c0,0,0,0,0,0c0-0.2-0.1-0.4-0.1-0.6
                                                c0.1-0.1,0.2-0.3,0.3-0.5c0,0,0.1-0.1,0.2-0.1c0-0.1-0.1-0.2-0.2,0c-0.1,0.1-0.2,0.2-0.3,0.3c0-0.1-0.1-0.1-0.1-0.2
                                                c0,0,0,0-0.1,0c0,0.3,0,0.5,0,0.8c0,0-0.1,0-0.2-0.1c0.1-0.4,0.3-0.9,0.4-1.3C81.4,59.3,81.4,59.2,81.5,59.2"></path>
                                             <path class="st3" d="M76.9,65.5l5.1-0.3l-4.9,1.4C77.2,66.6,76.8,66.1,76.9,65.5z"></path>
                                          </g>
                                       </g>
                                    </g>
                                    <g id="Calque_2" class="st0">
                                       <g class="st1">
                                          <path class="st3" d="M61.1,80c-0.5-0.5-1.2-0.8-1.9-0.8s-1.4,0.3-1.9,0.8l-3.8,3.8c-1,1-1,2.7,0,3.8l3.8,3.8
                                             c0.5,0.5,1.2,0.8,1.9,0.8s1.4-0.3,1.9-0.8l3.8-3.8c1-1,1-2.7,0-3.8L61.1,80z"></path>
                                          <path class="st3" d="M28.1,59.5l-3.8-3.8c-0.5-0.5-1.2-0.8-1.9-0.8c-0.7,0-1.4,0.3-1.9,0.8l-3.8,3.8C16.3,60,16,60.6,16,61.4
                                             s0.3,1.4,0.8,1.9l3.8,3.8l0,0c0.5,0.5,1.2,0.8,1.9,0.8c0.7,0,1.4-0.3,1.9-0.8l3.8-3.8C29.1,62.2,29.1,60.5,28.1,59.5z"></path>
                                          <path class="st3" d="M49.3,85.7c-0.1-0.2-0.1-0.5,0-0.7l3.5-5.4c0.8-1.3,0.8-2.9,0-4.2L49.3,70c-0.1-0.2-0.1-0.5,0-0.7l3.5-5.4
                                             c0.8-1.3,0.8-2.9,0-4.2l-3.5-5.4c-0.1-0.2-0.1-0.5,0-0.7l3.5-5.4c0.8-1.3,0.8-2.9,0-4.2l-1.6-2.5l52.8-4.7l-0.4-3.8l-54.2,5.8
                                             l-0.1-0.2c-0.1-0.2-0.1-0.5,0-0.7l0.9-1.4l52.7-7.6l-0.6-3.8l-50,8.1l0.6-1c0.5-0.7,0.3-1.7-0.5-2.2c-0.7-0.5-1.7-0.3-2.2,0.5
                                             L48,34l-5.7,0.9l0.6-0.9c0.5-0.7,0.3-1.7-0.5-2.2c-0.7-0.5-1.7-0.3-2.2,0.5l-2.2,3.3L33,36.4l0.9-1.3c0.5-0.7,0.3-1.7-0.5-2.2
                                             c-0.7-0.5-1.7-0.3-2.2,0.5l-1.8,2.8c-0.2,0.3-0.3,0.6-0.4,0.9l-3.5,0.6l0.4,2.4l3.2-0.5c0.1,0.3,0.2,0.5,0.4,0.8l0.4,0.6l-3.5,0.4
                                             l0.2,2.4l4.9-0.4l1.6,2.5c0.1,0.2,0.1,0.5,0,0.7l-3.5,5.4c-0.8,1.3-0.8,2.9,0,4.2l3.5,5.4c0.1,0.2,0.1,0.5,0,0.7l-3.5,5.4
                                             c-0.8,1.3-0.8,2.9,0,4.2l3.5,5.4c0.1,0.2,0.1,0.5,0,0.7l-3.5,5.4c-0.8,1.3-0.8,2.9,0,4.2l1.2,1.9c0.3,0.5,0.8,0.7,1.3,0.7
                                             c0.3,0,0.6-0.1,0.9-0.3c0.7-0.5,0.9-1.5,0.5-2.2L32,85.7c-0.1-0.2-0.1-0.5,0-0.7l3.5-5.4c0.8-1.3,0.8-2.9,0-4.2L32,70
                                             c-0.1-0.2-0.1-0.5,0-0.7l3.5-5.4c0.8-1.3,0.8-2.9,0-4.2L32,54.3c-0.1-0.2-0.1-0.5,0-0.7l3.5-5.4c0.8-1.3,0.8-2.9,0-4.2L34.9,43
                                             l4.3-0.4l2.1,3.2c0.1,0.2,0.1,0.5,0,0.7l-3.5,5.4c-0.8,1.3-0.8,2.9,0,4.2l3.5,5.4c0.1,0.2,0.1,0.5,0,0.7l-3.5,5.4
                                             c-0.8,1.3-0.8,2.9,0,4.2l3.5,5.4c0.1,0.2,0.1,0.5,0,0.7l-1.6,2.5c-0.5,0.7-0.3,1.7,0.5,2.2c0.3,0.2,0.6,0.3,0.9,0.3
                                             c0.5,0,1-0.3,1.3-0.7l1.6-2.5c0.8-1.3,0.8-2.9,0-4.2L40.4,70c-0.1-0.2-0.1-0.5,0-0.7l3.5-5.4c0.8-1.3,0.8-2.9,0-4.2l-3.5-5.4
                                             c-0.1-0.2-0.1-0.5,0-0.7l3.5-5.4c0.8-1.3,0.8-2.9,0-4.2l-1.2-1.8l4.8-0.4l2.6,3.9c0.1,0.2,0.1,0.5,0,0.7l-3.5,5.4
                                             c-0.8,1.3-0.8,2.9,0,4.2l3.5,5.4c0.1,0.2,0.1,0.5,0,0.7l-3.5,5.4c-0.8,1.3-0.8,2.9,0,4.2l3.5,5.4c0.1,0.2,0.1,0.5,0,0.7l-3.5,5.4
                                             c-0.8,1.3-0.8,2.9,0,4.2l4.3,6.6c0.3,0.5,0.8,0.7,1.3,0.7c0.3,0,0.6-0.1,0.9-0.3c0.7-0.5,0.9-1.5,0.5-2.2L49.3,85.7z M33.3,40.5
                                             l-0.9-1.4l4.7-0.7c0,0.6,0.2,1.1,0.4,1.6L33.3,40.5z M46.1,39.2l-5,0.5l-0.7-1.1c-0.1-0.2-0.1-0.4,0-0.7l5.8-0.8
                                             C46,37.8,45.9,38.5,46.1,39.2z"></path>
                                       </g>
                                    </g>
                                    <g id="Calque_3" class="st0">
                                       <g class="st1">
                                          <g>
                                             <path class="st4" d="M99.1,89.3c3.9,0,7.1-3.2,7.1-7.1c0-3.9-3.2-7.1-7.1-7.1S92,78.3,92,82.2l0,0C92,86.1,95.2,89.3,99.1,89.3
                                                C99.1,89.3,99.1,89.3,99.1,89.3z M99.1,87.3c-2.8,0-5.1-2.3-5.1-5.1c0-2.8,2.3-5.1,5.1-5.1c2.8,0,5.1,2.3,5.1,5.1l0,0
                                                C104.2,85,101.9,87.3,99.1,87.3z"></path>
                                             <path class="st4" d="M38.2,89.2c4.8,0,8.7-3.9,8.7-8.7s-3.9-8.7-8.7-8.7s-8.7,3.9-8.7,8.7l0,0C29.6,85.3,33.4,89.1,38.2,89.2z
                                                M31.6,80.6c0-3.7,3-6.6,6.6-6.6c3.7,0,6.6,3,6.6,6.6c0,3.6-2.9,6.6-6.5,6.6c0,0-0.1,0-0.1,0C38.2,87.2,31.6,87.2,31.6,80.6z"></path>
                                             <path class="st4" d="M38.3,84.6c2.2,0,4.1-1.8,4.1-4.1s-1.8-4.1-4.1-4.1s-4.1,1.8-4.1,4.1l0,0c0,2.2,1.7,4,4,4.1
                                                C38.2,84.6,38.3,84.6,38.3,84.6z M38.2,82.6c-1.1,0-2-0.9-2-2c0-1.1,0.9-2,2-2s2,0.9,2,2l0,0C40.2,81.7,39.3,82.6,38.2,82.6
                                                C38.2,82.6,38.2,82.6,38.2,82.6z"></path>
                                             <circle class="st4" cx="99.1" cy="82.2" r="2.3"></circle>
                                             <path class="st4" d="M99.2,68.8c0.4-0.4,0.4-1,0-1.4c-0.4-0.4-1-0.4-1.4,0c-0.5,0.6-1.1,1.1-1.7,1.7l-7.2-23.4l4.8-2.3
                                                c0.5-0.3,0.7-0.9,0.5-1.4c-0.1-0.4-0.6-0.5-1-0.5L18.1,30.7c-0.3,0-0.6,0.1-0.9,0.4c-0.3,0.3-0.4,0.7-0.3,1l1.4,4.6
                                                c0.2,0.3,0.4,0.5,0.8,0.6v33h-4.3c-0.6,0-1,0.5-1,1c0,0.6,0.5,1,1,1c0,0,0,0,0,0h11.4l-2,9.3c-0.1,0.6,0.2,1.1,0.8,1.3h0.3
                                                c0.5,0,0.9-0.3,1-0.8L29,69.4h17.6l3.1,12.7c0.2,0.4,0.6,0.7,1,0.8h34.1C85,82.8,96.1,72.3,99.2,68.8z M49.4,72.8h15
                                                c0.5,0,0.9-0.3,1-0.8h9c0.5,0,0.9-0.3,1-0.8l1.3-5.3c0.1-0.3,0.1-0.6-0.1-0.9c-0.2-0.2-0.5-0.4-0.8-0.4H65.3V43.1l12.1,1.5
                                                l7.9,11.8l-1,5.6L82,59.7c-0.2-0.1-0.5-0.2-0.8-0.3H76c-0.6,0-1,0.5-1,1c0,0.6,0.5,1,1,1h4.8l3.1,3.1l-1.9,10.1
                                                c-0.8,0.1-2.2,0.4-4.8,1c-0.5,0.2-0.9,0.7-0.8,1.3c0.2,0.4,0.6,0.7,1,0.8h0.3c1.5-0.4,3.1-0.6,4.1-0.9l-0.8,3.9H51.4L49.4,72.8z
                                                M65.5,70v-3.3h9.3l-0.8,3.2h-8.4C65.5,69.9,65.5,69.9,65.5,70z M63.5,70.6H49.1l-0.4-1.4h11.3c0.3,0,0.6,0,0.8-0.3
                                                c0.2-0.2,0.2-0.5,0.3-0.8v-3.6h2.4L63.5,70.6z M44.7,62.7H21.4v-4.8c0.8,0.1,1.5,0.4,2.2,0.9c1.2,0.8,2.7,1.3,4.2,1.3
                                                c1.5,0,3-0.4,4.2-1.3c0.9-0.7,2-1.1,3.2-1c1.1,0,2.3,0.4,3.2,1c1.2,0.8,2.7,1.3,4.2,1.3c1.5,0,3-0.4,4.2-1.3c0.9-0.7,2-1.1,3.2-1
                                                c1.1,0,2.3,0.4,3.2,1c1.2,0.8,2.7,1.3,4.2,1.3c1.5,0,3-0.4,4.2-1.3c0.7-0.4,1.4-0.7,2.2-0.9v4.7h-3.6c0,0-0.6,0-0.8,0.3
                                                c-0.2,0.2-0.2,0.5-0.3,0.8v3.6H47.9C46.4,65.4,44.7,62.7,44.7,62.7z M21.1,37.5l42.2,5.2v13.1c-1.1,0.2-2.2,0.6-3.2,1.3
                                                c-0.9,0.7-2,1.1-3.2,1c-1.1,0-2.3-0.4-3.2-1c-1.2-0.8-2.7-1.3-4.2-1.3c-1.5,0-3,0.4-4.2,1.3c-0.9,0.7-2,1.1-3.2,1
                                                c-1.1,0-2.3-0.4-3.2-1c-1.2-0.8-2.7-1.3-4.2-1.3c-1.5,0-3,0.4-4.2,1.3c-0.9,0.7-2,1.1-3.2,1c-1.1,0-2.3-0.4-3.2-1
                                                c-0.9-0.7-2-1.2-3.2-1.3L21.1,37.5z M21.1,70.2v-5.5h22.6c0.3,0.5,0.8,1.4,1.4,2.4H28.3c-0.5,0-0.9,0.3-1,0.8l-0.5,2.3L21.1,70.2
                                                z M19.4,33L90,43.1l-1.7,0.7c-0.1,0-68.2-8.5-68.2-8.5L19.4,33z M94.5,70.8c-3.8,3.8-9,8.8-10.3,10H83l0.9-4.8l3.7-19.5
                                                c0.1-0.1-7.3-11.6-7.3-11.6l6.6,0.8L94.5,70.8z"></path>
                                          </g>
                                          <g>
                                             <path class="st3" d="M33.2,51l8.8-1.8c0,0,0.3-0.1,0.4,0c0,0-0.3,0.1-0.3,0.1l-8.7,2C33.3,51.4,33.1,51.3,33.2,51z"></path>
                                             <path class="st3" d="M49.5,52.6l-8.7-2.1c0,0-0.3-0.1-0.3-0.1c0-0.1,0.3,0,0.3,0l8.7,1.8C49.5,52.2,49.6,52.3,49.5,52.6z"></path>
                                             <path class="st3" d="M38.3,50.4l4-1c0,0,0.1,0,0.1-0.1c0.1,0,2.5,0,2.5,0s-0.2,0.9-0.8,1.6c-0.7-0.1-3.6-0.7-3.6-0.7
                                                s-0.3-0.1-0.4,0.1c-0.1,0.2,0.3,0.3,0.3,0.4c0.1,0,3.1,0.7,3.1,0.7s-0.8,0.7-2.4,0.7C39.7,52,38.7,50.9,38.3,50.4z"></path>
                                             <path class="st3" d="M44,47.5c0,0.1,0.1,0.3,0.3,0.3c0,0,0.1-0.3,0.2-0.5c0.1-0.1,0.2-0.6,0.1-0.9l-0.2,0
                                                C44.5,46.4,44.5,47.5,44,47.5"></path>
                                             <path class="st3" d="M43.3,48C43.6,47.7,43.4,48.1,43.3,48c0,0.1-0.8,0.9-1.2,0.7C42.2,48.7,42.7,48.6,43.3,48 M41.2,49.2
                                                l1.1-0.2c0,0,0,0,0,0c0,0,0.1,0,0.1,0c0.1,0,0.1,0.1,0.1,0.2c0,0,0,0,0,0.1c0.5-0.1,1.1-0.3,1.6-0.7c0.5-0.4,0.4-0.7,0.4-0.7
                                                c0,0-0.1,0-0.3-0.1c-0.2-0.1-0.2-0.4-0.2-0.4c-0.3,0-1,0.7-1.5,1c-0.5,0.3-1.4,0.3-1.5,0.4C40.9,49,41,49.1,41.2,49.2"></path>
                                             <path class="st3" d="M42,45.7C42,45.6,42,45.6,42,45.7c-0.3-0.2-0.5-0.3-0.7-0.5c0,0,0,0-0.1,0c-0.1,0-0.1,0-0.2,0.1
                                                c0,0.1-0.1,0.2-0.1,0.3c0,0.1,0,0.1,0.1,0.1c0,0,0,0,0,0C41.4,45.6,41.7,45.6,42,45.7C42,45.7,42,45.7,42,45.7"></path>
                                             <path class="st3" d="M42,45.8C42,45.8,42,45.8,42,45.8c-0.3,0.1-0.5,0.3-0.8,0.4c-0.2,0.1-0.2,0.1-0.1,0.3c0,0.1,0.1,0.1,0.2,0.2
                                                c0,0,0.1,0,0.1,0c0,0,0,0,0,0C41.7,46.3,41.9,46.1,42,45.8C42,45.8,42,45.8,42,45.8"></path>
                                             <path class="st3" d="M42.1,45.8C42.1,45.9,42.1,45.9,42.1,45.8c-0.2,0.3-0.3,0.5-0.5,0.7c-0.1,0.2-0.1,0.2,0.1,0.3
                                                c0.1,0,0.1,0,0.2,0.1c0,0,0.1,0,0.1-0.1c0,0,0,0,0-0.1C42,46.5,42.1,46.2,42.1,45.8C42.1,45.9,42.1,45.9,42.1,45.8"></path>
                                             <path class="st3" d="M42,45.7c-0.3,0-0.6,0-0.9-0.1c-0.1,0-0.1,0-0.1,0.1c0,0.1,0,0.2,0.1,0.3c0,0.1,0.1,0.1,0.1,0.1c0,0,0,0,0,0
                                                C41.4,46,41.7,45.9,42,45.7C42,45.7,42,45.7,42,45.7"></path>
                                             <path class="st3" d="M42.2,45.9c0,0.1,0,0.1,0,0.2c0,0.2,0,0.5-0.1,0.7c0,0,0,0,0,0.1c0,0,0,0.1,0.1,0.1c0.1,0,0.2,0,0.3-0.1
                                                c0,0,0.1,0,0.1-0.1c0,0,0,0,0-0.1C42.4,46.4,42.3,46.1,42.2,45.9C42.2,45.9,42.2,45.9,42.2,45.9"></path>
                                             <path class="st3" d="M42.2,45.8c0,0.1,0.1,0.2,0.1,0.3c0.1,0.2,0.2,0.4,0.3,0.6c0,0,0,0,0,0.1c0,0,0.1,0.1,0.1,0
                                                c0.1-0.1,0.2-0.2,0.3-0.2c0,0,0-0.1,0-0.1c0,0,0,0-0.1-0.1C42.7,46.2,42.5,46,42.2,45.8C42.3,45.8,42.3,45.8,42.2,45.8"></path>
                                             <path class="st3" d="M42.1,47.1c-0.3,0-0.5-0.1-0.8-0.2c-0.6-0.4-0.8-1.3-0.4-1.9l0,0l0,0c0,0,0,0,0.1,0c0,0,0.1,0.1,0.2,0.1l0,0
                                                c-0.1-0.1-0.1-0.1-0.2-0.2c0,0,0,0,0,0c-0.4,0.6-0.2,1.4,0.4,1.8c0.6,0.4,1.4,0.3,1.8-0.3c0,0,0,0-0.1,0c0,0-0.1,0-0.2-0.1l0,0
                                                c0.1,0.1,0.2,0.1,0.2,0.1c0,0,0.1,0,0.1,0l0,0l0,0C43,46.9,42.6,47.1,42.1,47.1z"></path>
                                             <path class="st3" d="M40.7,43.5c-0.1-0.1-0.2-0.1-0.2,0c0,0.1,0,0.1,0,0.2c0,0,0,0.1,0.1,0C40.7,43.6,40.8,43.5,40.7,43.5
                                                M40.3,43.3c-0.2,0-0.2,0-0.2,0.1c0.1,0.1,0.1,0.2,0.1,0.4c0.1,0,0.2,0,0.2-0.2C40.5,43.4,40.5,43.3,40.3,43.3 M40,43.4
                                                c-0.1,0-0.4,0.3-0.4,0.3c0.1,0,0.3,0,0.4,0.2c0,0,0.1-0.1,0.1-0.1S40.2,43.4,40,43.4 M39.5,43.9c-0.1,0.2-0.2,0.3-0.2,0.5
                                                c0.1-0.1,0.4-0.3,0.6-0.3c0.1,0,0.1-0.1,0.1-0.2c0-0.1-0.2-0.2-0.2-0.2C39.7,43.8,39.6,43.7,39.5,43.9 M39.4,44.6
                                                c0,0.2,0.1,0.4,0.2,0.4c0-0.1,0.1-0.4,0.4-0.5c0.1,0,0-0.1,0-0.2c0-0.1,0-0.1-0.2-0.1C39.6,44.3,39.4,44.5,39.4,44.6 M39.8,45.2
                                                c0,0,0.3-0.2,0.3-0.5c0-0.2-0.1-0.2-0.2-0.2c-0.1,0-0.3,0.2-0.4,0.5C39.6,45.1,39.8,45.2,39.8,45.2 M41.3,43.5
                                                c-0.1,0.1-0.1,0.1,0,0.1c0.1,0.1,0,0.1-0.1,0.2c-0.1,0.1-0.2,0.1-0.3,0c-0.2-0.1-0.4-0.1-0.6,0c-0.2,0.2-0.2,0.5-0.2,0.5
                                                c0,0.1,0.2,0.2,0.2,0.4c0,0.4-0.3,0.6-0.4,0.6c-0.1,0-0.2-0.1-0.3-0.2c0,0-0.4-0.4-0.2-0.9c0.1-0.5,0.5-0.9,0.8-1
                                                c0.4-0.1,0.6,0.2,0.6,0.2C40.8,43.5,41.1,43.4,41.3,43.5C41.3,43.3,41.3,43.4,41.3,43.5"></path>
                                             <path class="st3" d="M42.7,43.8c0.1,0.1,0.2,0.1,0.1,0.1c-0.1,0-0.1,0-0.1,0c0,0-0.1,0-0.1-0.1C42.6,43.7,42.7,43.7,42.7,43.8
                                                M43,44.1c0,0.1,0.1,0.2,0,0.2c-0.1-0.1-0.2,0-0.3-0.1c0-0.1,0-0.2,0.1-0.2C42.9,43.9,42.9,43.9,43,44.1 M43,44.4
                                                c0,0.1-0.1,0.4-0.1,0.4c0-0.1-0.1-0.2-0.3-0.4c0,0,0-0.1,0-0.1S42.9,44.2,43,44.4 M42.8,44.9c-0.1,0.1-0.2,0.2-0.4,0.2
                                                c0-0.1,0.2-0.4,0-0.6c-0.1-0.1,0.1-0.1,0.1-0.1c0,0,0.2,0.2,0.2,0.2C42.8,44.7,42.9,44.8,42.8,44.9 M42.2,45.1
                                                c-0.1,0-0.3-0.1-0.4-0.1c0.1,0,0.3-0.2,0.3-0.4c0-0.1,0.1,0,0.1,0c0,0,0.1,0,0.1,0.2C42.4,44.9,42.3,45.1,42.2,45.1 M41.6,44.7
                                                c0,0,0-0.3,0.3-0.4c0.1,0,0.2,0.1,0.2,0.1c0,0.1-0.1,0.3-0.3,0.4C41.7,44.9,41.6,44.7,41.6,44.7 M42.6,43.2c0,0.1,0,0.1-0.1,0
                                                c-0.1,0-0.1,0-0.2,0.1c-0.1,0.1,0,0.2,0.1,0.3c0.1,0.1,0.2,0.3,0.1,0.6c-0.1,0.2-0.3,0.2-0.4,0.2c-0.1,0-0.2-0.2-0.3-0.1
                                                c-0.3,0.1-0.3,0.4-0.3,0.4c0,0.1,0.2,0.2,0.2,0.3c0,0,0.4,0.3,0.8,0.1c0.4-0.2,0.6-0.5,0.6-0.9c0-0.4-0.3-0.6-0.4-0.6
                                                C42.7,43.6,42.7,43.3,42.6,43.2C42.7,43.2,42.6,43.1,42.6,43.2"></path>
                                             <path class="st3" d="M43.7,45.8C43.8,45.8,43.8,45.8,43.7,45.8c0.1,0.1,0.1,0.1,0,0.1C43.7,45.9,43.7,45.9,43.7,45.8
                                                C43.6,45.8,43.6,45.8,43.7,45.8 M44,45.8c0.1,0.1,0.1,0.1,0.1,0.1c-0.1,0-0.1,0.1-0.2,0.1c0,0-0.1-0.1-0.1-0.2
                                                C43.9,45.8,43.9,45.8,44,45.8 M44.1,46c0.1,0,0.1,0.2,0.1,0.3c0,0-0.2-0.1-0.3-0.1c0,0,0-0.1,0-0.1S44,45.9,44.1,46 M44.2,46.4
                                                c0,0.1,0,0.2-0.1,0.3c0,0-0.1-0.3-0.2-0.3c-0.1,0,0-0.1,0-0.1c0,0,0.2,0,0.2,0C44.1,46.2,44.2,46.3,44.2,46.4 M44,46.7
                                                c-0.1,0.1-0.2,0.1-0.3,0.1c0-0.1,0.1-0.2,0-0.4c0,0,0-0.1,0.1-0.1c0,0,0.1,0,0.1,0C44,46.5,44.1,46.6,44,46.7 M43.5,46.7
                                                c0,0-0.1-0.2,0-0.3c0-0.1,0.2,0,0.2,0c0.1,0,0.1,0.2,0.1,0.3C43.7,46.8,43.6,46.8,43.5,46.7 M43.4,45.6
                                                C43.4,45.6,43.4,45.6,43.4,45.6c-0.1,0.1-0.1,0.1-0.1,0.2c0,0,0.1,0.1,0.2,0.1c0.1,0,0.3,0.1,0.3,0.2c0.1,0.1-0.1,0.3-0.1,0.3
                                                c0,0-0.2,0-0.2,0.1c-0.1,0.2,0,0.3,0,0.4c0,0,0.2,0,0.2,0c0,0,0.4,0,0.5-0.3c0.1-0.2,0.1-0.5-0.1-0.7c-0.2-0.2-0.4-0.1-0.4-0.1
                                                C43.6,45.7,43.5,45.6,43.4,45.6C43.4,45.5,43.4,45.5,43.4,45.6"></path>
                                             <path class="st3" d="M39.3,48.6C39.3,48.7,39.3,48.8,39.3,48.6c0.1,0.1,0.1,0.1,0.1,0c0,0,0,0,0-0.1
                                                C39.4,48.6,39.3,48.6,39.3,48.6 M39.3,48.9c0.1,0.1,0.1,0.1,0.1,0.1c0-0.1,0.1-0.1,0.2-0.1c0,0-0.1-0.1-0.2-0.1
                                                C39.3,48.8,39.3,48.8,39.3,48.9 M39.5,49c0,0.1,0.2,0.1,0.3,0.1c0,0-0.1-0.1,0-0.3c0,0-0.1,0-0.1,0S39.4,48.9,39.5,49 M39.9,49.1
                                                c0.1,0,0.2,0,0.3-0.1c0,0-0.3-0.1-0.3-0.2c0-0.1-0.1,0-0.1,0c0,0,0,0.1,0,0.2C39.7,49.1,39.8,49.1,39.9,49.1 M40.3,49
                                                c0.1-0.1,0.1-0.2,0.2-0.2c-0.1,0-0.2,0-0.4-0.1c0,0-0.1,0-0.1,0c0,0-0.1,0.1,0,0.1C40,49,40.2,49.1,40.3,49 M40.4,48.6
                                                c0,0-0.2-0.1-0.3-0.1c-0.1,0,0,0.1,0,0.1c0,0.1,0.2,0.1,0.4,0.1C40.4,48.8,40.4,48.6,40.4,48.6 M39.1,48.3
                                                C39.2,48.3,39.2,48.3,39.1,48.3c0.1-0.1,0.2,0,0.2,0c0.1,0,0.1,0.1,0.1,0.2c0,0.1,0,0.2,0.2,0.3c0.1,0.1,0.3,0,0.3,0
                                                c0,0,0-0.2,0.1-0.2c0.2-0.1,0.4,0,0.4,0.1c0,0,0,0.2,0,0.2c0,0-0.1,0.3-0.4,0.4c-0.3,0.1-0.6,0-0.7-0.2c-0.2-0.2-0.1-0.4-0.1-0.4
                                                C39.3,48.6,39.1,48.4,39.1,48.3C39.1,48.3,39.1,48.3,39.1,48.3"></path>
                                             <path class="st3" d="M40.6,47.6L40.6,47.6C40.6,47.6,40.6,47.6,40.6,47.6z M42.5,47.7c-0.2,0-0.4,0.1-0.6,0.2
                                                c-0.1,0.1-0.2,0.1-0.4,0.1c-0.1,0-0.2,0-0.2,0c-0.1,0-0.1,0-0.2,0c0-0.1,0-0.2-0.1-0.2c0.1-0.1,0.2-0.2,0.3-0.1c0,0,0-0.1,0-0.1
                                                c-0.1,0-0.2,0-0.3,0c0,0,0.1,0,0.1-0.1c-0.1,0-0.2,0.2-0.2,0.4c-0.1-0.1-0.2-0.1-0.1-0.2c0,0,0-0.1,0-0.1
                                                c0.1-0.1,0.2-0.2,0.3-0.2c-0.1-0.1-0.1-0.1-0.3,0.1c0,0,0.1-0.1,0.1-0.1c-0.1,0.1-0.1,0.2-0.2,0.3c0,0-0.1-0.1-0.1-0.2
                                                c0,0,0-0.1,0-0.1c-0.1,0,0-0.1,0-0.1c0.1,0,0.1-0.1,0.2-0.1c0,0,0.1,0,0.1,0.1c0,0,0,0,0,0c0,0,0-0.1,0-0.1
                                                c-0.1-0.1-0.2,0-0.3,0.1c0,0,0-0.1,0.1-0.1c-0.1,0-0.2,0.2-0.2,0.3c0,0,0,0.1,0,0.1v0c0,0,0,0,0,0c0,0,0,0,0,0
                                                c0,0.1-0.1,0.1-0.2,0.2c0,0-0.1,0-0.1,0.1c-0.1,0.1-0.1,0.1-0.2,0.2c0.1,0.1,0.1,0.2,0.3,0.2c0.1,0.1,0.3,0.2,0.3,0.1
                                                c0-0.1,0.1-0.1,0.1-0.2c0,0,0,0-0.1,0.3c0.1,0,0.1,0,0.2,0c0.3,0,0.6,0,0.8-0.1c0.2,0,0.5-0.1,0.6-0.3c0.1,0,0.1-0.1,0.2-0.2
                                                c0,0,0-0.1,0-0.1c0,0,0,0,0,0C42.6,47.8,42.6,47.7,42.5,47.7C42.6,47.7,42.5,47.7,42.5,47.7"></path>
                                             <path class="st3" d="M40.7,47c0.1,0,0.1,0,0.1,0c0,0,0-0.1,0-0.1C40.8,46.9,40.7,46.9,40.7,47c-0.1,0-0.1,0-0.2,0
                                                c0,0,0,0-0.1,0.1c0,0,0.1-0.1,0.1-0.1c-0.1,0-0.1,0.1-0.2,0.2c0,0,0.1,0,0.1,0C40.6,47.1,40.6,47,40.7,47"></path>
                                             <path class="st3" d="M40.4,46.3c0.1,0,0.1,0,0.2,0c-0.1-0.1-0.3-0.1-0.3,0.1c-0.1,0.2-0.1,0.3-0.2,0.5c0,0,0,0,0,0
                                                c0-0.2,0.1-0.3,0.1-0.4c0-0.1,0-0.3,0.1-0.4c0.1,0,0.2,0.1,0.4,0.1c0,0,0,0,0,0c0,0-0.1,0-0.1,0c-0.3-0.1-0.3-0.1-0.3,0.2
                                                c0,0.2-0.1,0.3-0.1,0.5c0-0.3,0-0.5,0-0.8c0.2,0,0.3,0,0.5,0.1c0,0,0,0,0,0c-0.1,0-0.3,0-0.4-0.1c-0.1,0-0.1,0-0.1,0.1
                                                c0,0.1,0,0.3,0,0.4c0,0.1,0,0.2,0,0.3c0,0-0.1-0.2-0.1-0.3c0-0.1,0-0.3,0-0.4c0.2,0,0.4,0,0.6,0c0,0,0,0,0,0c-0.2,0-0.4,0-0.6,0
                                                c0,0,0,0,0,0v0c0,0,0,0,0,0c0,0,0.1-0.1,0.1-0.1c0,0,0,0-0.1,0c0,0,0,0,0,0c-0.1,0.1-0.2,0.1-0.2,0.2c-0.1,0.1-0.1,0.2-0.1,0.3
                                                c0,0.1,0,0.2,0,0.3c0,0,0,0,0,0c-0.2-0.2-0.5-0.4-0.5-0.8c-0.1,0.1,0,0.4,0.3,0.6c0,0-0.1,0-0.1,0c-0.1-0.1-0.1-0.2-0.3-0.3
                                                c0.1,0.1,0.2,0.2,0.2,0.2c0,0,0,0,0,0c-0.1,0-0.2-0.1-0.3-0.1c0,0,0,0,0,0c-0.1-0.2-0.1-0.3-0.2-0.5c-0.1-0.2-0.2-0.4-0.5-0.5
                                                c-0.2-0.1-0.4,0-0.6,0.1c-0.2,0.2-0.3,0.3-0.2,0.6c0,0,0,0,0,0c0,0.5,0.4,0.8,0.7,1.2c0.4,0.4,0.9,0.8,1.4,1.1c0,0,0,0,0,0
                                                c-0.1-0.1-0.2-0.1-0.3-0.2c-0.5-0.4-1-0.8-1.4-1.2c-0.1-0.1-0.2-0.3-0.3-0.5c0,0,0-0.1,0-0.1c0.4,0.5,0.9,0.9,1.4,1.3
                                                c0,0-0.1-0.1-0.1-0.1c0,0-0.1-0.1-0.1-0.1c-0.4-0.3-0.7-0.6-1-1c-0.2-0.2-0.2-0.4-0.1-0.6c0.1-0.3,0.5-0.4,0.8-0.2
                                                c0.1,0.1,0.2,0.1,0.2,0.2c0.1,0.1,0.1,0.3,0.2,0.4c0,0,0,0,0,0.1c-0.1-0.1-0.2-0.1-0.3-0.2c0,0,0,0,0,0c0.1,0.1,0.2,0.1,0.2,0.2
                                                c0.1,0.1,0.2,0.1,0.2,0.2c-0.1-0.2-0.3-0.3-0.4-0.4c0,0,0,0,0,0c0.1,0,0.1,0.1,0.2,0.1c0,0,0.1,0.1,0.1,0.1c0,0,0,0.1,0.1,0.1
                                                c0,0-0.1,0-0.1-0.1c0,0,0,0,0,0.1c0,0,0.1,0.1,0.1,0.1c-0.1,0-0.1,0-0.2-0.1c-0.1-0.1-0.1-0.1-0.2-0.2c0,0,0,0,0,0
                                                c0.1,0.1,0.2,0.2,0.3,0.3c0.2,0.2,0.5,0.4,0.7,0.6c0.1,0,0.1,0.1,0.2,0.1c0,0,0,0,0,0c0.1,0.1,0.2,0.2,0.2,0.3
                                                c0,0.1,0.1,0.1,0.1,0.2c0.1,0.2,0.2,0.2,0.3,0c0,0,0.1,0,0.1-0.1c0.1-0.1,0.1-0.1,0.2-0.2c0-0.1-0.1-0.2-0.1-0.3c0,0,0,0,0,0
                                                c0-0.1,0-0.1-0.1-0.1c0,0,0,0.1-0.1,0.1c0,0,0,0,0,0c0-0.1,0-0.2,0-0.3c0.1-0.1,0.1-0.2,0.2-0.2c0,0,0.1,0,0.1,0
                                                c0-0.1,0-0.1-0.1,0c-0.1,0-0.1,0.1-0.2,0.2c0,0,0-0.1,0-0.1c0,0,0,0,0,0c0,0.1,0,0.3,0,0.4c0,0,0,0-0.1,0
                                                C40.2,46.8,40.2,46.6,40.4,46.3C40.3,46.4,40.4,46.3,40.4,46.3"></path>
                                             <path class="st3" d="M37.9,49.3h2.5L38,49.8C38,49.8,37.9,49.6,37.9,49.3z"></path>
                                          </g>
                                       </g>
                                    </g>
                                    <g id="Calque_4" class="st0">
                                       <g class="st1">
                                          <path class="st3" d="M49.3,54.2c2.1,0,3.6-0.3,3.8-0.3c0,0,0,0,0.1,0c0.2,0,0.4-0.1,0.5-0.3c0.1-0.1,0.2-0.3,0.3-0.5
                                             c0,0,0,0,0-0.1c0.1-0.3,1.6-8.5-2.6-12.7c-0.8-0.8-1.7-1.4-2.7-1.8c0,0,0,0,0,0c-4.3-1.9-9.7-0.9-10-0.8c-0.4,0.1-0.8,0.4-0.8,0.8
                                             c-0.1,0.3-1.6,8.5,2.6,12.7C42.8,53.7,46.5,54.2,49.3,54.2z M49.8,41.9c2.3,2.3,2.4,6.2,2.3,8.6l-2.8-2.8l0-6.2
                                             C49.4,41.6,49.6,41.7,49.8,41.9z M39.7,39.7c1.4-0.2,4.7-0.4,7.4,0.6l0,5.3l-2.9-2.9c-0.4-0.4-1.1-0.4-1.5,0
                                             c-0.4,0.4-0.4,1.1,0,1.5l0.5,0.5h-3.5C39.4,42.7,39.6,40.7,39.7,39.7z M45.4,46.9l5.2,5.2c-2.4,0.2-6.4,0-8.6-2.3
                                             c-0.8-0.8-1.3-1.8-1.7-2.9H45.4z"></path>
                                          <path class="st3" d="M66.1,42.4c0,0.2,0.1,0.4,0.3,0.5c0.1,0.1,0.3,0.2,0.5,0.3c0,0,0,0,0.1,0c0.1,0,1.7,0.3,3.8,0.3
                                             c2.8,0,6.5-0.5,8.9-3c0.8-0.8,1.4-1.7,1.8-2.7c0,0,0,0,0,0c1.9-4.3,0.9-9.7,0.8-10c-0.1-0.4-0.4-0.8-0.8-0.8
                                             c-0.3-0.1-8.5-1.6-12.7,2.6C64.5,33.8,66,42,66.1,42.4C66.1,42.3,66.1,42.3,66.1,42.4z M78.1,39c-2.3,2.3-6.2,2.4-8.6,2.3l2.8-2.8
                                             l6.2,0C78.4,38.6,78.3,38.8,78.1,39z M77.3,32c-0.4-0.4-1.1-0.4-1.5,0l-0.5,0.5V29c2-0.3,4-0.1,5,0c0.2,1.4,0.4,4.7-0.6,7.4
                                             l-5.3,0l2.9-2.9C77.7,33,77.7,32.4,77.3,32z M70.2,31.1c0.8-0.8,1.8-1.3,2.9-1.7v5.2l-2,2c0,0,0,0,0,0L68,39.8
                                             C67.8,37.3,68,33.4,70.2,31.1z"></path>
                                          <path class="st3" d="M50.5,36.6c0.6,0.6,1.4,0.9,2.2,0.9c0.8,0,1.6-0.3,2.2-0.9c0,0,0,0,0,0c0.3-0.3,0.6-0.7,1.1-1.3l1.6,2.3
                                             c0.5,0.7,1.3,1.1,2.1,1.2c0.1,0,0.2,0,0.2,0c0.8,0,1.5-0.3,2-0.8l1.1-1.1c0.6-0.6,0.9-1.4,0.8-2.3c-0.1-0.9-0.5-1.6-1.2-2.1
                                             l-2.3-1.6c0.5-0.4,0.9-0.7,1.3-1.1c0,0,0,0,0,0c0,0,0,0,0,0c0,0,0,0,0,0c0,0,0,0,0,0c0.6-0.6,0.9-1.4,0.9-2.2
                                             c0-0.8-0.3-1.6-0.9-2.2l-1.2-1.2c-1.9-1.9-6.5-1.6-9.7,1.5c-1.4,1.4-2.3,3.2-2.6,5.1c-0.3,1.9,0.1,3.6,1.1,4.5L50.5,36.6z
                                             M61.5,34.2c0.2,0.2,0.3,0.4,0.3,0.6c0,0.1,0,0.4-0.2,0.6l-1.1,1.1c-0.2,0.2-0.5,0.2-0.6,0.2c-0.1,0-0.4-0.1-0.6-0.3l-2-2.8
                                             c0.2-0.2,0.4-0.5,0.6-0.7c0.2-0.2,0.5-0.4,0.7-0.6L61.5,34.2z M50.4,31.2c0.2-1.4,1-2.9,2-3.9c2.3-2.3,5.6-2.5,6.6-1.5l1.2,1.2
                                             c0.2,0.2,0.3,0.4,0.3,0.7c0,0.3-0.1,0.5-0.3,0.7c0,0,0,0,0,0c0,0,0,0,0,0c-0.3,0.3-0.9,0.7-1.4,1.2c-0.7,0.6-1.6,1.2-2.3,1.9
                                             c-0.8,0.8-1.5,1.8-2.1,2.5c-0.4,0.5-0.7,0.9-1,1.2c0,0,0,0,0,0c-0.4,0.4-1,0.4-1.3,0l-1.2-1.2C50.4,33.4,50.2,32.4,50.4,31.2z"></path>
                                          <path class="st3" d="M70.5,44.9C70.5,44.9,70.5,44.9,70.5,44.9l-7.4,7.4c0,0,0,0,0,0c0,0,0,0,0,0L58,57.4c0,0,0,0,0,0c0,0,0,0,0,0
                                             l-2.3,2.3c-0.4,0.4-0.4,1.1,0,1.5c2.2,2.2,5.1,3.4,8.2,3.4c3.1,0,6-1.2,8.2-3.4c4.5-4.5,4.5-11.9,0-16.4
                                             C71.6,44.5,70.9,44.5,70.5,44.9z M68.9,49.6c0.5,0.7,0.9,1.6,1,2.4h-3.4L68.9,49.6z M69.9,54.1c-0.2,0.9-0.5,1.7-1,2.4l-2.4-2.4
                                             H69.9z M64.9,55.7l2.4,2.4c-0.7,0.5-1.6,0.8-2.4,1V55.7z M62.8,55.7V59c-0.9-0.1-1.7-0.5-2.4-1L62.8,55.7z M70.5,59.7
                                             c-1.8,1.8-4.2,2.8-6.7,2.8c-2.2,0-4.2-0.8-5.8-2.1l0.8-0.8c1.5,1.1,3.2,1.7,5,1.7c0,0,0,0,0,0c0,0,0,0,0,0c2.1,0,4.2-0.8,5.8-2.4
                                             c1.6-1.6,2.4-3.6,2.4-5.8c0-1.8-0.6-3.6-1.7-5l0.8-0.8C74.1,50.9,73.9,56.3,70.5,59.7z"></path>
                                          <path class="st3" d="M95.9,69.7h-3.1c0.4-1.2,0.6-2.3,0.6-3.4c0-1.4-0.3-2.8-0.8-4.1c0,0,0,0,0,0c-2.2-5.8-8.3-10-8.6-10.2
                                             c0,0,0,0-0.1,0c-0.2-0.1-0.3-0.2-0.5-0.2c0,0,0,0,0,0c-0.2,0-0.4,0.1-0.5,0.2c0,0,0,0-0.1,0c-0.4,0.3-9.4,6.4-9.4,14.3
                                             c0,1.1,0.2,2.3,0.6,3.4H60.9c-0.4-3.2-2.7-5.9-5.8-6.8c-1.2-2.7-4.2-4.2-7.1-3.6c-1-2.3-3.3-3.9-5.9-3.9c-2.5,0-4.7,1.4-5.8,3.6
                                             c-5.4,0.2-9.7,4.6-9.7,10c0,0.2,0,0.5,0,0.7h-2.6c-0.6,0-1.1,0.5-1.1,1.1c0,10.9,8.3,20.6,22.2,26.1c0.1,0.1,0.3,0.1,0.4,0.1
                                             l28.7,0c0.1,0,0.3,0,0.4-0.1c13.9-5.5,22.2-15.2,22.2-26.1C96.9,70.2,96.5,69.7,95.9,69.7z M91.2,66.3c0,1.1-0.2,2.2-0.7,3.4h-4.6
                                             l5.1-5.1C91.1,65.1,91.2,65.7,91.2,66.3z M84.4,55c1.8,1.5,4.5,4.1,5.9,7.3l-5.9,5.9V55z M82.2,55v8.7L78,59.4
                                             C79.4,57.6,81,56,82.2,55z M75.4,66.3c0-1.8,0.6-3.4,1.4-5l5.4,5.4v3h-6.1C75.7,68.5,75.4,67.4,75.4,66.3z M28.8,69
                                             c0-4.4,3.5-7.9,7.9-7.9c0,0,0,0,0,0c0,0,0.2,0,0.3,0c0.5,0,0.9-0.3,1-0.7c0.6-1.7,2.2-2.9,4.1-2.9c2,0,3.7,1.4,4.2,3.3
                                             c0.1,0.3,0.3,0.6,0.5,0.7c0.3,0.1,0.6,0.2,0.9,0c2.3-0.9,4.8,0.4,5.6,2.6c0.1,0.4,0.4,0.6,0.8,0.7c2.4,0.5,4.3,2.5,4.7,4.9
                                             c-0.7,0-1.5,0-2.2,0c-4-1.2-5.9-3.1-6.3-6.2c-0.1-0.6-0.6-1-1.2-0.9c-0.6,0.1-1,0.6-0.9,1.2c0.4,2.7,1.6,4.4,3.1,5.7
                                             c-1.1-0.1-2.1-0.2-3.2-0.4c-2.6-2.2-5.1-6-4.9-8.8c0-0.6-0.4-1.1-1-1.1c-0.6-0.1-1.1,0.4-1.1,1c-0.1,2.6,1.4,5.7,3.4,8.1
                                             c-3.2-0.8-6.7-2.2-10.4-4.3c-0.5-0.3-1.2-0.1-1.5,0.4c-0.3,0.5-0.1,1.2,0.4,1.5c3.1,1.8,6,3,8.8,3.9H28.9
                                             C28.8,69.4,28.8,69.2,28.8,69z M74.1,94.8l-28.3,0c-6.2-2.5-19.9-9.5-20.6-23h69.5C94.1,85.3,80.3,92.3,74.1,94.8z"></path>
                                          <path class="st3" d="M81.5,87.9c0.2,0,0.5-0.1,0.6-0.2c4.7-3.6,8-7.7,10.1-12.3c0.2-0.5,0-1.2-0.6-1.4c-0.5-0.2-1.2,0-1.4,0.6
                                             c-1.9,4.3-5,8.1-9.4,11.4c-0.5,0.4-0.6,1-0.2,1.5C80.9,87.7,81.2,87.9,81.5,87.9z"></path>
                                          <path class="st3" d="M72.6,92.2c0.2,0.4,0.6,0.6,1,0.6c0.2,0,0.3,0,0.5-0.1c1.6-0.8,3.1-1.6,4.5-2.5c0.5-0.3,0.7-1,0.4-1.5
                                             c-0.3-0.5-1-0.7-1.5-0.3c-1.4,0.8-2.8,1.6-4.3,2.4C72.5,91,72.3,91.6,72.6,92.2z"></path>
                                       </g>
                                    </g>
                                    <g id="Calque_5" class="st0">
                                       <g class="st1">
                                          <g>
                                             <path class="st3" d="M75.5,99.1H44.5c-0.1,0-0.2,0-0.3-0.1c-0.2-0.1-19.7-8.3-21.2-32.5c0-0.2,0.1-0.4,0.2-0.6
                                                c0.1-0.2,0.4-0.2,0.6-0.2h72.3c0.2,0,0.4,0.1,0.6,0.2c0.1,0.2,0.2,0.4,0.2,0.6c-1.5,24.1-21,32.4-21.2,32.5
                                                C75.7,99.1,75.6,99.1,75.5,99.1z M44.7,97.6h30.6c1.7-0.7,18.3-8.8,20-30.2H24.7C26.4,88.8,43,96.8,44.7,97.6z"></path>
                                          </g>
                                          <g>
                                             <path class="st3" d="M95.2,74.1H55.6c-0.4,0-0.8-0.4-0.8-0.8c0-0.4,0.4-0.8,0.8-0.8h39.6c0.4,0,0.8,0.3,0.8,0.8
                                                C96,73.7,95.6,74.1,95.2,74.1z"></path>
                                          </g>
                                          <g>
                                             <g>
                                                <path class="st3" d="M90.6,67.4H31.2c-0.4,0-0.7-0.2-0.8-0.6c-0.2-0.6-0.2-1.1-0.2-1.7c0-3.6,2.9-6.5,6.5-6.5
                                                   c1.7,0,3.2,0.6,4.4,1.8c0.6-1.1,1.8-1.9,3.2-1.9c2,0,3.7,1.6,3.7,3.7c0.4-0.1,0.9-0.2,1.3-0.1c0.4-2.2,2.3-3.9,4.6-3.9
                                                   c0.8,0,1.5,0.2,2.2,0.6c0.8-1.3,2.3-2.1,3.9-2.1c1.4,0,2.8,0.7,3.6,1.8c1.3-1.4,3.7-1.5,5.2-0.2c0.7-0.6,1.5-1,2.5-1
                                                   c1.9,0,3.4,1.4,3.7,3.2c1.1-0.2,2.1,0.2,2.9,0.9c1.3-2.2,3.7-3.7,6.3-3.7c4.1,0,7.4,3.3,7.4,7.4c0,0.5-0.1,1-0.2,1.6
                                                   C91.3,67.1,90.9,67.4,90.6,67.4z M31.8,65.8h58.1c0-0.2,0-0.5,0-0.7c0-3.2-2.6-5.8-5.8-5.8c-2.4,0-4.6,1.5-5.4,3.8
                                                   c-0.1,0.3-0.4,0.5-0.7,0.5c-0.3,0-0.6-0.2-0.7-0.4c-0.5-1-1.7-1.5-2.9-1c-0.3,0.1-0.6,0.1-0.8-0.1c-0.2-0.2-0.3-0.5-0.3-0.8
                                                   c0-0.1,0-0.3,0-0.4c0-1.2-1-2.1-2.1-2.1c-0.7,0-1.4,0.4-1.8,1c-0.3,0.5-1.1,0.5-1.3,0c-0.4-0.6-1.1-1-1.8-1
                                                   c-0.9,0-1.7,0.5-2,1.4c-0.1,0.3-0.4,0.5-0.7,0.5c0,0,0,0,0,0c-0.3,0-0.6-0.2-0.7-0.5c-0.4-1.2-1.6-2-2.9-2c-1.3,0-2.4,0.8-2.8,2
                                                   c-0.1,0.2-0.3,0.4-0.5,0.5c-0.3,0.1-0.5,0-0.7-0.2c-0.6-0.5-1.3-0.7-2-0.7c-1.7,0-3.1,1.4-3.1,3.1c0,0.3-0.1,0.6-0.3,0.8
                                                   c-0.2,0.2-0.5,0.3-0.7,0.2c-0.9-0.4-1.9-0.1-2.5,0.6c-0.3,0.3-0.7,0.4-1.1,0.1c-0.3-0.3-0.4-0.7-0.2-1.1
                                                   c0.2-0.4,0.4-0.8,0.4-1.2c0-1.2-1-2.1-2.1-2.1c-1.1,0-2,0.8-2.1,1.9c0,0.3-0.3,0.6-0.6,0.7c-0.3,0.1-0.7,0-0.8-0.3
                                                   c-0.9-1.4-2.5-2.2-4.1-2.2c-2.7,0-4.9,2.2-4.9,4.9C31.7,65.3,31.7,65.6,31.8,65.8z"></path>
                                             </g>
                                             <g>
                                                <path class="st3" d="M51,61.1C51,61.1,51,61.1,51,61.1c-0.3,0-0.5-0.1-0.6-0.3L29.6,32c-0.5-0.6-0.6-1.4-0.5-2.2
                                                   c0.1-0.8,0.6-1.4,1.2-1.9c0.6-0.4,1.4-0.6,2.1-0.4c0.7,0.2,1.4,0.6,1.8,1.2l19.3,29.9c0.1,0.2,0.2,0.5,0.1,0.7
                                                   c-0.1,0.2-0.3,0.4-0.5,0.5c-0.6,0.2-1.1,0.5-1.5,0.9C51.5,61,51.3,61.1,51,61.1z M31.9,29c-0.2,0-0.5,0.1-0.7,0.2
                                                   c-0.3,0.2-0.5,0.5-0.6,0.8c-0.1,0.3,0,0.7,0.2,1l20.3,28.1c0.2-0.1,0.4-0.3,0.6-0.4L32.9,29.6c-0.2-0.3-0.5-0.5-0.8-0.6
                                                   C32,29,32,29,31.9,29z"></path>
                                             </g>
                                             <g>
                                                <path class="st3" d="M56.2,60.5c-0.2,0-0.3-0.1-0.5-0.2c-0.5-0.4-1.2-0.6-1.8-0.6c-0.4,0-0.8-0.2-0.9-0.6l-8.9-34.7
                                                   c-0.2-0.8-0.1-1.6,0.3-2.2c0.4-0.7,1.1-1.1,1.8-1.3c1.5-0.3,3,0.7,3.3,2.2L57,59.6c0.1,0.3-0.1,0.6-0.3,0.8
                                                   C56.5,60.5,56.4,60.5,56.2,60.5z M54.5,58.2c0.2,0,0.5,0.1,0.7,0.1l-7-34.9c-0.1-0.7-0.8-1.1-1.5-1c-0.3,0.1-0.6,0.3-0.8,0.6
                                                   c-0.2,0.3-0.2,0.7-0.2,1L54.5,58.2z"></path>
                                             </g>
                                          </g>
                                       </g>
                                    </g>
                                    <g id="Calque_6" class="st0">
                                       <g class="st1">
                                          <path class="st3" d="M59.2,42.4l-18.4,0.2c-0.3,0-0.7,0-0.9,0.4c-0.2,0.3-0.3,0.5-0.3,0.9l7.1,53.4c0.1,0.6,0.6,1.1,1.2,1.1
                                             l25.1,0c0.6,0,1.1-0.6,1.2-1.2l6.2-53.6c0.1-0.4,0-0.8-0.2-1c-0.3-0.4-0.7-0.4-0.9-0.4l-17,0.1L59.2,42.4z M44.1,58.4
                                             c1.9-0.9,7.1-2.4,15.5,1.2c3.8,1.6,7.5,2.5,10.9,2.5h0.2c1.8,0,3.5-0.3,5.1-0.8l0.2-0.1l-4,34.6l-23,0.2l-5-37.5L44.1,58.4z
                                             M76.3,58.5c-0.3,0.2-1.6,0.7-3.6,0.9c-0.6,0.1-1.3,0.1-1.9,0.1h-0.1c-3.2,0-6.6-0.8-10.1-2.3c-3.7-1.6-7.3-2.4-10.6-2.4
                                             c-2.8,0-4.9,0.6-6.2,1.1l-0.1,0l-1.5-11l35.7-0.3L76.3,58.5L76.3,58.5z"></path>
                                          <polyline class="st5" points="60,58.3 60,33.2 74.3,21.5 		"></polyline>
                                       </g>
                                    </g>
                                    <g id="Calque_7" class="st0">
                                       <g class="st1">
                                          <g>
                                             <path class="st3" d="M61,97.1c-14.6,0-26.5-11.7-26.5-26.2c0-3.2,0.6-6.4,1.8-9.4c0.1-0.3,0.4-0.4,0.6-0.4h48.2
                                                c0.3,0,0.5,0.2,0.6,0.4c1.2,3,1.8,6.2,1.8,9.4C87.5,85.3,75.6,97.1,61,97.1z M37.4,62.4c-1,2.7-1.5,5.6-1.5,8.5
                                                c0,13.7,11.3,24.8,25.2,24.8c13.9,0,25.2-11.1,25.2-24.8c0-2.9-0.5-5.8-1.5-8.5H37.4z"></path>
                                          </g>
                                          <g>
                                             <path class="st3" d="M47.7,85.5c-2.1,0-3.9-1.7-3.9-3.9c0-2.1,1.7-3.9,3.9-3.9c2.1,0,3.9,1.7,3.9,3.9
                                                C51.5,83.8,49.8,85.5,47.7,85.5z M47.7,79.1c-1.4,0-2.5,1.1-2.5,2.5c0,1.4,1.1,2.5,2.5,2.5c1.4,0,2.5-1.1,2.5-2.5
                                                C50.2,80.2,49.1,79.1,47.7,79.1z"></path>
                                          </g>
                                          <g>
                                             <path class="st3" d="M55.9,81.9c-2.1,0-3.9-1.7-3.9-3.9c0-2.1,1.7-3.9,3.9-3.9c2.1,0,3.9,1.7,3.9,3.9
                                                C59.8,80.1,58,81.9,55.9,81.9z M55.9,75.5c-1.4,0-2.5,1.1-2.5,2.5c0,1.4,1.1,2.5,2.5,2.5c1.4,0,2.5-1.1,2.5-2.5
                                                C58.4,76.6,57.3,75.5,55.9,75.5z"></path>
                                          </g>
                                          <g>
                                             <path class="st3" d="M55.3,90.4c-2.1,0-3.9-1.7-3.9-3.9s1.7-3.9,3.9-3.9c2.1,0,3.9,1.7,3.9,3.9S57.4,90.4,55.3,90.4z M55.3,84
                                                c-1.4,0-2.5,1.1-2.5,2.5c0,1.4,1.1,2.5,2.5,2.5c1.4,0,2.5-1.1,2.5-2.5C57.8,85.1,56.7,84,55.3,84z"></path>
                                          </g>
                                          <g>
                                             <path class="st3" d="M72.9,62.4h-4.8c-0.2,0-0.4-0.1-0.6-0.3c-0.1-0.2-0.1-0.4,0-0.7l11.9-25c1.4-3,4.3-4.6,6.8-3.8l11,3.6
                                                c0.2,0.1,0.3,0.2,0.4,0.3c0.1,0.2,0.1,0.3,0,0.5l-1.5,4.5c-0.1,0.4-0.5,0.5-0.8,0.4l-7.5-2.4c-1.9-0.6-4.1,0.7-5.2,3.1L73.5,62
                                                C73.4,62.2,73.1,62.4,72.9,62.4z M69.2,61h3.3l9.1-19c1.4-3,4.3-4.6,6.8-3.8l6.9,2.2l1-3.2l-10.4-3.4l0,0
                                                c-1.9-0.6-4.1,0.7-5.2,3.1L69.2,61z"></path>
                                          </g>
                                          <g>
                                             <path class="st3" d="M85,39.9c-0.3,0-0.6-0.2-0.6-0.5l-1.7-5.8c0-0.1,0-0.1,0-0.2c0-0.3,0.2-0.6,0.5-0.7c0.4-0.1,0.7,0.1,0.8,0.5
                                                l1.7,5.8c0,0.1,0,0.1,0,0.2c0,0.3-0.2,0.6-0.5,0.7C85.2,39.9,85.1,39.9,85,39.9z"></path>
                                          </g>
                                          <g>
                                             <path class="st3" d="M82.7,41.7c-0.1,0-0.1,0-0.2,0c-0.3-0.1-0.8-0.3-2.5-5.8c-0.1-0.3,0.1-0.7,0.4-0.8c0.3-0.1,0.7,0.1,0.9,0.4
                                                l2.1,5.3c0.1,0.2,0,0.5-0.1,0.7C83,41.6,82.9,41.7,82.7,41.7z"></path>
                                          </g>
                                          <g>
                                             <path class="st3" d="M81,45.4c-0.3,0-0.5-0.2-0.6-0.4l-2.2-5.4c0-0.1,0-0.2,0-0.3c0-0.3,0.2-0.5,0.4-0.6c0.3-0.1,0.7,0,0.9,0.4
                                                l2.2,5.4c0,0.1,0,0.2,0,0.3c0,0.3-0.2,0.5-0.4,0.6C81.1,45.4,81.1,45.4,81,45.4z"></path>
                                          </g>
                                          <g>
                                             <path class="st3" d="M61,94.1c-0.4,0-0.7-0.3-0.7-0.7c0-0.4,0.3-0.7,0.7-0.7c11,0,19.9-8.8,19.9-19.6c0-0.4,0.3-0.7,0.7-0.7
                                                c0.4,0,0.7,0.3,0.7,0.7C82.3,84.7,72.8,94.1,61,94.1z"></path>
                                          </g>
                                          <g>
                                             <path class="st3" d="M25,48.5c-0.8,0-1.6-0.3-2.2-1c-0.7-0.8-0.8-2-0.3-3l9.9-18c1.6-3,5.6-4.4,8.8-3.2c5.3,2.1,12.8,5.3,19,8.5
                                                c0.9,0.5,1.5,1.4,1.4,2.5c-0.1,1.1-0.8,2.1-1.9,2.5c-1.4,0.5-2.6,1.2-3.4,2.1c-0.8,0.8-1.9,1.2-2.8,1c-2.7-0.5-7.1,1.3-9,3.2
                                                c-0.7,0.7-1.7,1-2.6,0.9c-2.2-0.3-6.4,0.3-8.9,2.8c-0.9,0.9-2,1.3-3.1,1c-1.1-0.3-2.4-0.2-3.8,0.3C25.7,48.4,25.4,48.5,25,48.5z
                                                M38.7,24.3c-2.1,0-4.1,1.1-5.1,2.9l-9.9,18c-0.3,0.5-0.2,1,0.1,1.4c0.3,0.4,1,0.7,1.8,0.4c1.7-0.6,3.2-0.7,4.6-0.4
                                                c0.6,0.1,1.3-0.1,1.8-0.7c3.1-3.1,7.9-3.5,10-3.2c0.6,0.1,1.1-0.1,1.5-0.5c2.2-2.2,7.1-4.2,10.2-3.6c0.6,0.1,1.2-0.2,1.6-0.6
                                                c1-1,2.3-1.8,3.9-2.4c0.7-0.3,1-0.9,1.1-1.3c0-0.5-0.2-0.9-0.7-1.2l0,0c-6.1-3.2-13.7-6.3-18.9-8.4
                                                C40.1,24.4,39.4,24.3,38.7,24.3z"></path>
                                          </g>
                                          <g>
                                             <path class="st3" d="M50.9,62.4c-0.3,0-0.5-0.2-0.6-0.4l-6.8-19c0-0.1,0-0.2,0-0.2c0-0.3,0.2-0.5,0.4-0.6
                                                c0.3-0.1,0.7,0.1,0.9,0.4l6.8,19c0,0.1,0,0.2,0,0.2c0,0.3-0.2,0.5-0.4,0.6C51,62.4,50.9,62.4,50.9,62.4z"></path>
                                          </g>
                                       </g>
                                    </g>
                                    <g id="Calque_8">
                                       <g>
                                          <rect x="34.6" y="34.5" class="st6" width="51" height="7.9"></rect>
                                          <rect x="34.6" y="91.5" class="st6" width="29.9" height="5.8"></rect>
                                          <path class="st6" d="M74.3,64.2c2.4,0,4.6-1.6,5.3-3.9H69c0,0.1,0,0.1,0,0.2C69.8,62.7,71.9,64.2,74.3,64.2z"></path>
                                          <path class="st6" d="M36.5,60.3H25.9c0.7,2.3,2.9,3.9,5.3,3.9c0.2,0,0.5,0,0.8-0.1c0.3-0.2,0.6-0.3,1-0.2
                                             C34.6,63.3,36,62,36.5,60.3z"></path>
                                          <polygon class="st6" points="33.9,45.9 27,56.8 37.1,56.8 41.1,45.9 		"></polygon>
                                          <path class="st6" d="M46.3,64.2c2.1,0,4.1-1.2,5-3.2c-0.1-0.2-0.1-0.5-0.2-0.7H41C41.7,62.6,43.8,64.2,46.3,64.2z"></path>
                                          <polygon class="st6" points="41,56.8 51.1,56.8 51.7,51.8 52.1,45.9 44.8,45.9 		"></polygon>
                                          <polygon class="st6" points="78.4,45.9 82.4,56.8 92.4,56.8 85.5,45.9 		"></polygon>
                                          <path class="st6" d="M88.8,64.2c2.4,0,4.6-1.6,5.3-3.9H83.5C84.2,62.6,86.4,64.2,88.8,64.2z"></path>
                                          <polygon class="st6" points="78.4,56.8 74.6,45.9 67.4,45.9 68.1,56.8 		"></polygon>
                                          <polygon class="st6" points="63.5,45.9 56,45.9 55.2,52.2 54.9,56.8 64.3,56.8 		"></polygon>
                                          <path class="st6" d="M60.1,64.2c2.4,0,4.5-1.5,5.3-3.7c0-0.1,0-0.1,0-0.2H55.2c0,0.2-0.1,0.5-0.2,0.7C56,62.9,57.9,64.2,60.1,64.2
                                             z"></path>
                                          <path class="st6" d="M81.5,64c-1.7,2.3-4.4,3.6-7.3,3.6c-2.4,0-4.6-0.9-6.3-2.6c0,0.1,0,0.1,0,0.2v32h17.7V67.1
                                             C84,66.5,82.6,65.4,81.5,64z M74.9,84c0,1-0.8,1.8-1.8,1.8S71.4,85,71.4,84v-6.8c0-1,0.8-1.8,1.8-1.8s1.8,0.8,1.8,1.8V84z"></path>
                                          <path class="st6" d="M53.2,64.5c-1.7,2-4.3,3.2-6.9,3.2c-3,0-5.8-1.5-7.5-4c-1,1.5-2.5,2.7-4.2,3.3v21h29.9V66.6
                                             c-1.3,0.7-2.8,1.1-4.3,1.1C57.4,67.7,54.9,66.5,53.2,64.5z M41.8,84.7c-0.5,0-0.9-0.2-1.2-0.5C40.2,83.9,40,83.4,40,83
                                             c0-0.5,0.2-0.9,0.5-1.2l10.8-11.1c0.3-0.3,0.8-0.5,1.2-0.5c0,0,0,0,0,0c0.5,0,0.9,0.2,1.2,0.5c0.3,0.3,0.5,0.8,0.5,1.2
                                             c0,0.5-0.2,0.9-0.5,1.2L43.1,84.2C42.7,84.5,42.3,84.7,41.8,84.7z M56.7,77.7l-6.3,6.8c-0.3,0.4-0.8,0.6-1.3,0.6
                                             c-0.4,0-0.9-0.2-1.2-0.5c-0.7-0.7-0.8-1.8-0.1-2.5l6.3-6.8c0.3-0.3,0.8-0.5,1.2-0.6c0.5,0,0.9,0.1,1.3,0.5
                                             C57.3,75.8,57.4,76.9,56.7,77.7z"></path>
                                          <path class="st3" d="M73.2,76.4c-0.4,0-0.8,0.3-0.8,0.8V84c0,0.4,0.3,0.8,0.8,0.8c0.4,0,0.8-0.3,0.8-0.8v-6.8
                                             C73.9,76.8,73.6,76.4,73.2,76.4z"></path>
                                          <path class="st3" d="M53.4,71.8c0-0.2-0.1-0.4-0.2-0.5h0c-0.1-0.1-0.3-0.2-0.5-0.2c0,0,0,0,0,0c-0.2,0-0.4,0.1-0.5,0.2L41.3,82.4
                                             c-0.1,0.1-0.2,0.3-0.2,0.5c0,0.2,0.1,0.4,0.2,0.5c0.3,0.3,0.8,0.3,1.1,0l10.8-11.1C53.3,72.2,53.4,72,53.4,71.8z"></path>
                                          <path class="st3" d="M55.9,75.9c-0.1-0.1-0.3-0.2-0.5-0.2c0,0,0,0,0,0c-0.2,0-0.4,0.1-0.5,0.2l-6.3,6.8c-0.3,0.3-0.3,0.8,0,1.1
                                             c0.3,0.3,0.8,0.3,1.1,0L56,77C56.3,76.7,56.2,76.2,55.9,75.9z"></path>
                                          <path class="st3" d="M88.1,98.3V66.7l0.5,0l0.2,0c4.5,0,8.1-3.6,8.1-8.1l-9.1-13.8l0.2-0.3c0.1-0.1,0.1-0.3,0.1-0.4V32.7
                                             c0-0.4-0.3-0.8-0.8-0.8H32.8c-0.4,0-0.8,0.3-0.8,0.8v11.4l-8.9,14c0,0,0,0.1-0.1,0.1l-0.1,0.1c0,0,0,0.1,0,0.1
                                             c0,4.5,3.6,8.2,8.1,8.2c0.1,0,0.2,0,0.3,0l0.5,0v31.7h-5.3c-0.4,0-0.8,0.3-0.8,0.8c0,0.4,0.3,0.8,0.8,0.8h66.7
                                             c0.4,0,0.8-0.3,0.8-0.8c0-0.4-0.3-0.8-0.8-0.8H88.1z M95.3,59.9c-0.6,3-3.3,5.3-6.5,5.3c-3.1,0-5.8-2.2-6.5-5.3l-0.1-0.6h13.2
                                             L95.3,59.9z M94.2,57.8H81.7L77,44.9h9.1L94.2,57.8z M54,60.9c0.1-0.4,0.2-0.8,0.3-1.2l0.1-0.4h11.8l0.1,0.4
                                             c0,0.2,0.1,0.4,0.1,0.6l0,0.1l0,0.1c-0.9,2.7-3.4,4.5-6.3,4.5c-2.6,0-5-1.5-6-3.9L54,61.1L54,60.9z M53.8,57.8l0.4-5.7l0.9-7.2
                                             h9.3l1,12.8H53.8z M66.3,44.9h9.1l4.5,12.9H67.2L66.3,44.9z M68,60.4c0-0.2,0.1-0.4,0.1-0.6l0.1-0.4h12.7l-0.1,0.6
                                             c-0.6,3-3.3,5.3-6.5,5.3c-2.8,0-5.4-1.8-6.3-4.5l0-0.1L68,60.4z M33.6,33.5h53v9.9h-53V33.5z M52,57.8H39.6l4.5-12.9h9.1l-0.5,7
                                             L52,57.8z M52.4,61.1l-0.1,0.2c-1.1,2.4-3.4,3.9-6,3.9c-3.1,0-5.8-2.2-6.5-5.3l-0.1-0.6H52l0.1,0.4c0.1,0.4,0.1,0.8,0.3,1.2
                                             L52.4,61.1z M33.4,44.9h9.1l-4.8,12.9H25.2L33.4,44.9z M33,64.9l-0.2,0c-0.1,0-0.3,0-0.4,0.1l-0.2,0.1c-0.4,0.1-0.7,0.1-1,0.1
                                             c-3.1,0-5.8-2.2-6.5-5.3l-0.1-0.6h13.2l-0.1,0.6C37.2,62.3,35.4,64.2,33,64.9L33,64.9z M65.4,98.3H33.6v-7.8h31.9V98.3z M65.4,89
                                             H33.6V66.3l0.3-0.1c1.9-0.7,3.4-2,4.4-3.7l0.4-0.8l0.4,0.8c1.4,2.6,4.2,4.2,7.1,4.2c2.5,0,5-1.2,6.5-3.3l0.4-0.5l0.4,0.5
                                             c1.5,2,4,3.3,6.5,3.3c1.6,0,3.2-0.5,4.6-1.4l0.8-0.5V89z M86.6,98.3H66.9V62.9c0-0.3-0.2,0.3-0.5,0.2l-0.6,1.2l0.4-0.5
                                             c0.2-0.2,0.3-0.4,0.5-0.6l0.4-0.6l0.4,0.6c1.5,2.2,4,3.5,6.7,3.5c2.8,0,5.3-1.4,6.8-3.8l0.4-0.7l0.4,0.7c1,1.6,2.5,2.8,4.3,3.4
                                             l0.3,0.1V98.3z"></path>
                                       </g>
                                    </g>
                                 </svg>