  <svg version="1.1" id="Calque_3" xmlns="http://www.w3.org/2000/svg" xmlns:xlink="http://www.w3.org/1999/xlink" x="0px" y="0px"
                              viewBox="0 0 120 120" style="enable-background:new 0 0 120 120;" xml:space="preserve">
                              <style type="text/css">
                                 .st0{fill:#eb6713;stroke:#eb6713;stroke-width:0.25;stroke-miterlimit:10;}
                                 .st1{fill:#eb6713;}
                              </style>
                              <g>
                                 <g>
                                    <path class="st0" d="M99.1,89.3c3.9,0,7.1-3.2,7.1-7.1c0-3.9-3.2-7.1-7.1-7.1S92,78.3,92,82.2l0,0C92,86.1,95.2,89.3,99.1,89.3
                                       C99.1,89.3,99.1,89.3,99.1,89.3z M99.1,87.3c-2.8,0-5.1-2.3-5.1-5.1c0-2.8,2.3-5.1,5.1-5.1c2.8,0,5.1,2.3,5.1,5.1l0,0
                                       C104.2,85,101.9,87.3,99.1,87.3z"/>
                                    <path class="st0" d="M38.2,89.2c4.8,0,8.7-3.9,8.7-8.7s-3.9-8.7-8.7-8.7s-8.7,3.9-8.7,8.7l0,0C29.6,85.3,33.4,89.1,38.2,89.2z
                                       M31.6,80.6c0-3.7,3-6.6,6.6-6.6c3.7,0,6.6,3,6.6,6.6c0,3.6-2.9,6.6-6.5,6.6c0,0-0.1,0-0.1,0C38.2,87.2,31.6,87.2,31.6,80.6z"/>
                                    <path class="st0" d="M38.3,84.6c2.2,0,4.1-1.8,4.1-4.1s-1.8-4.1-4.1-4.1s-4.1,1.8-4.1,4.1l0,0c0,2.2,1.7,4,4,4.1
                                       C38.2,84.6,38.3,84.6,38.3,84.6z M38.2,82.6c-1.1,0-2-0.9-2-2c0-1.1,0.9-2,2-2s2,0.9,2,2l0,0C40.2,81.7,39.3,82.6,38.2,82.6
                                       C38.2,82.6,38.2,82.6,38.2,82.6z"/>
                                    <circle class="st0" cx="99.1" cy="82.2" r="2.3"/>
                                    <path class="st0" d="M99.2,68.8c0.4-0.4,0.4-1,0-1.4c-0.4-0.4-1-0.4-1.4,0c-0.5,0.6-1.1,1.1-1.7,1.7l-7.2-23.4l4.8-2.3
                                       c0.5-0.3,0.7-0.9,0.5-1.4c-0.1-0.4-0.6-0.5-1-0.5L18.1,30.7c-0.3,0-0.6,0.1-0.9,0.4c-0.3,0.3-0.4,0.7-0.3,1l1.4,4.6
                                       c0.2,0.3,0.4,0.5,0.8,0.6v33h-4.3c-0.6,0-1,0.5-1,1c0,0.6,0.5,1,1,1c0,0,0,0,0,0h11.4l-2,9.3c-0.1,0.6,0.2,1.1,0.8,1.3h0.3
                                       c0.5,0,0.9-0.3,1-0.8L29,69.4h17.6l3.1,12.7c0.2,0.4,0.6,0.7,1,0.8h34.1C85,82.8,96.1,72.3,99.2,68.8z M49.4,72.8h15
                                       c0.5,0,0.9-0.3,1-0.8h9c0.5,0,0.9-0.3,1-0.8l1.3-5.3c0.1-0.3,0.1-0.6-0.1-0.9c-0.2-0.2-0.5-0.4-0.8-0.4H65.3V43.1l12.1,1.5
                                       l7.9,11.8l-1,5.6L82,59.7c-0.2-0.1-0.5-0.2-0.8-0.3H76c-0.6,0-1,0.5-1,1c0,0.6,0.5,1,1,1h4.8l3.1,3.1l-1.9,10.1
                                       c-0.8,0.1-2.2,0.4-4.8,1c-0.5,0.2-0.9,0.7-0.8,1.3c0.2,0.4,0.6,0.7,1,0.8h0.3c1.5-0.4,3.1-0.6,4.1-0.9l-0.8,3.9H51.4L49.4,72.8z
                                       M65.5,70v-3.3h9.3l-0.8,3.2h-8.4C65.5,69.9,65.5,69.9,65.5,70z M63.5,70.6H49.1l-0.4-1.4h11.3c0.3,0,0.6,0,0.8-0.3
                                       c0.2-0.2,0.2-0.5,0.3-0.8v-3.6h2.4L63.5,70.6z M44.7,62.7H21.4v-4.8c0.8,0.1,1.5,0.4,2.2,0.9c1.2,0.8,2.7,1.3,4.2,1.3
                                       c1.5,0,3-0.4,4.2-1.3c0.9-0.7,2-1.1,3.2-1c1.1,0,2.3,0.4,3.2,1c1.2,0.8,2.7,1.3,4.2,1.3c1.5,0,3-0.4,4.2-1.3c0.9-0.7,2-1.1,3.2-1
                                       c1.1,0,2.3,0.4,3.2,1c1.2,0.8,2.7,1.3,4.2,1.3c1.5,0,3-0.4,4.2-1.3c0.7-0.4,1.4-0.7,2.2-0.9v4.7h-3.6c0,0-0.6,0-0.8,0.3
                                       c-0.2,0.2-0.2,0.5-0.3,0.8v3.6H47.9C46.4,65.4,44.7,62.7,44.7,62.7z M21.1,37.5l42.2,5.2v13.1c-1.1,0.2-2.2,0.6-3.2,1.3
                                       c-0.9,0.7-2,1.1-3.2,1c-1.1,0-2.3-0.4-3.2-1c-1.2-0.8-2.7-1.3-4.2-1.3c-1.5,0-3,0.4-4.2,1.3c-0.9,0.7-2,1.1-3.2,1
                                       c-1.1,0-2.3-0.4-3.2-1c-1.2-0.8-2.7-1.3-4.2-1.3c-1.5,0-3,0.4-4.2,1.3c-0.9,0.7-2,1.1-3.2,1c-1.1,0-2.3-0.4-3.2-1
                                       c-0.9-0.7-2-1.2-3.2-1.3L21.1,37.5z M21.1,70.2v-5.5h22.6c0.3,0.5,0.8,1.4,1.4,2.4H28.3c-0.5,0-0.9,0.3-1,0.8l-0.5,2.3L21.1,70.2z
                                       M19.4,33L90,43.1l-1.7,0.7c-0.1,0-68.2-8.5-68.2-8.5L19.4,33z M94.5,70.8c-3.8,3.8-9,8.8-10.3,10H83l0.9-4.8l3.7-19.5
                                       c0.1-0.1-7.3-11.6-7.3-11.6l6.6,0.8L94.5,70.8z"/>
                                 </g>
                                 <g>
                                    <path class="st1" d="M33.2,51l8.8-1.8c0,0,0.3-0.1,0.4,0c0,0-0.3,0.1-0.3,0.1l-8.7,2C33.3,51.4,33.1,51.3,33.2,51z"/>
                                    <path class="st1" d="M49.5,52.6l-8.7-2.1c0,0-0.3-0.1-0.3-0.1c0-0.1,0.3,0,0.3,0l8.7,1.8C49.5,52.2,49.6,52.3,49.5,52.6z"/>
                                    <path class="st1" d="M38.3,50.4l4-1c0,0,0.1,0,0.1-0.1c0.1,0,2.5,0,2.5,0s-0.2,0.9-0.8,1.6c-0.7-0.1-3.6-0.7-3.6-0.7
                                       s-0.3-0.1-0.4,0.1c-0.1,0.2,0.3,0.3,0.3,0.4c0.1,0,3.1,0.7,3.1,0.7s-0.8,0.7-2.4,0.7C39.7,52,38.7,50.9,38.3,50.4z"/>
                                    <path class="st1" d="M44,47.5c0,0.1,0.1,0.3,0.3,0.3c0,0,0.1-0.3,0.2-0.5c0.1-0.1,0.2-0.6,0.1-0.9l-0.2,0
                                       C44.5,46.4,44.5,47.5,44,47.5"/>
                                    <path class="st1" d="M43.3,48C43.6,47.7,43.4,48.1,43.3,48c0,0.1-0.8,0.9-1.2,0.7C42.2,48.7,42.7,48.6,43.3,48 M41.2,49.2l1.1-0.2
                                       c0,0,0,0,0,0c0,0,0.1,0,0.1,0c0.1,0,0.1,0.1,0.1,0.2c0,0,0,0,0,0.1c0.5-0.1,1.1-0.3,1.6-0.7c0.5-0.4,0.4-0.7,0.4-0.7
                                       c0,0-0.1,0-0.3-0.1c-0.2-0.1-0.2-0.4-0.2-0.4c-0.3,0-1,0.7-1.5,1c-0.5,0.3-1.4,0.3-1.5,0.4C40.9,49,41,49.1,41.2,49.2"/>
                                    <path class="st1" d="M42,45.7C42,45.6,42,45.6,42,45.7c-0.3-0.2-0.5-0.3-0.7-0.5c0,0,0,0-0.1,0c-0.1,0-0.1,0-0.2,0.1
                                       c0,0.1-0.1,0.2-0.1,0.3c0,0.1,0,0.1,0.1,0.1c0,0,0,0,0,0C41.4,45.6,41.7,45.6,42,45.7C42,45.7,42,45.7,42,45.7"/>
                                    <path class="st1" d="M42,45.8C42,45.8,42,45.8,42,45.8c-0.3,0.1-0.5,0.3-0.8,0.4c-0.2,0.1-0.2,0.1-0.1,0.3c0,0.1,0.1,0.1,0.2,0.2
                                       c0,0,0.1,0,0.1,0c0,0,0,0,0,0C41.7,46.3,41.9,46.1,42,45.8C42,45.8,42,45.8,42,45.8"/>
                                    <path class="st1" d="M42.1,45.8C42.1,45.9,42.1,45.9,42.1,45.8c-0.2,0.3-0.3,0.5-0.5,0.7c-0.1,0.2-0.1,0.2,0.1,0.3
                                       c0.1,0,0.1,0,0.2,0.1c0,0,0.1,0,0.1-0.1c0,0,0,0,0-0.1C42,46.5,42.1,46.2,42.1,45.8C42.1,45.9,42.1,45.9,42.1,45.8"/>
                                    <path class="st1" d="M42,45.7c-0.3,0-0.6,0-0.9-0.1c-0.1,0-0.1,0-0.1,0.1c0,0.1,0,0.2,0.1,0.3c0,0.1,0.1,0.1,0.1,0.1c0,0,0,0,0,0
                                       C41.4,46,41.7,45.9,42,45.7C42,45.7,42,45.7,42,45.7"/>
                                    <path class="st1" d="M42.2,45.9c0,0.1,0,0.1,0,0.2c0,0.2,0,0.5-0.1,0.7c0,0,0,0,0,0.1c0,0,0,0.1,0.1,0.1c0.1,0,0.2,0,0.3-0.1
                                       c0,0,0.1,0,0.1-0.1c0,0,0,0,0-0.1C42.4,46.4,42.3,46.1,42.2,45.9C42.2,45.9,42.2,45.9,42.2,45.9"/>
                                    <path class="st1" d="M42.2,45.8c0,0.1,0.1,0.2,0.1,0.3c0.1,0.2,0.2,0.4,0.3,0.6c0,0,0,0,0,0.1c0,0,0.1,0.1,0.1,0
                                       c0.1-0.1,0.2-0.2,0.3-0.2c0,0,0-0.1,0-0.1c0,0,0,0-0.1-0.1C42.7,46.2,42.5,46,42.2,45.8C42.3,45.8,42.3,45.8,42.2,45.8"/>
                                    <path class="st1" d="M42.1,47.1c-0.3,0-0.5-0.1-0.8-0.2c-0.6-0.4-0.8-1.3-0.4-1.9l0,0l0,0c0,0,0,0,0.1,0c0,0,0.1,0.1,0.2,0.1l0,0
                                       c-0.1-0.1-0.1-0.1-0.2-0.2c0,0,0,0,0,0c-0.4,0.6-0.2,1.4,0.4,1.8c0.6,0.4,1.4,0.3,1.8-0.3c0,0,0,0-0.1,0c0,0-0.1,0-0.2-0.1l0,0
                                       c0.1,0.1,0.2,0.1,0.2,0.1c0,0,0.1,0,0.1,0l0,0l0,0C43,46.9,42.6,47.1,42.1,47.1z"/>
                                    <path class="st1" d="M40.7,43.5c-0.1-0.1-0.2-0.1-0.2,0c0,0.1,0,0.1,0,0.2c0,0,0,0.1,0.1,0C40.7,43.6,40.8,43.5,40.7,43.5
                                       M40.3,43.3c-0.2,0-0.2,0-0.2,0.1c0.1,0.1,0.1,0.2,0.1,0.4c0.1,0,0.2,0,0.2-0.2C40.5,43.4,40.5,43.3,40.3,43.3 M40,43.4
                                       c-0.1,0-0.4,0.3-0.4,0.3c0.1,0,0.3,0,0.4,0.2c0,0,0.1-0.1,0.1-0.1S40.2,43.4,40,43.4 M39.5,43.9c-0.1,0.2-0.2,0.3-0.2,0.5
                                       c0.1-0.1,0.4-0.3,0.6-0.3c0.1,0,0.1-0.1,0.1-0.2c0-0.1-0.2-0.2-0.2-0.2C39.7,43.8,39.6,43.7,39.5,43.9 M39.4,44.6
                                       c0,0.2,0.1,0.4,0.2,0.4c0-0.1,0.1-0.4,0.4-0.5c0.1,0,0-0.1,0-0.2c0-0.1,0-0.1-0.2-0.1C39.6,44.3,39.4,44.5,39.4,44.6 M39.8,45.2
                                       c0,0,0.3-0.2,0.3-0.5c0-0.2-0.1-0.2-0.2-0.2c-0.1,0-0.3,0.2-0.4,0.5C39.6,45.1,39.8,45.2,39.8,45.2 M41.3,43.5
                                       c-0.1,0.1-0.1,0.1,0,0.1c0.1,0.1,0,0.1-0.1,0.2c-0.1,0.1-0.2,0.1-0.3,0c-0.2-0.1-0.4-0.1-0.6,0c-0.2,0.2-0.2,0.5-0.2,0.5
                                       c0,0.1,0.2,0.2,0.2,0.4c0,0.4-0.3,0.6-0.4,0.6c-0.1,0-0.2-0.1-0.3-0.2c0,0-0.4-0.4-0.2-0.9c0.1-0.5,0.5-0.9,0.8-1
                                       c0.4-0.1,0.6,0.2,0.6,0.2C40.8,43.5,41.1,43.4,41.3,43.5C41.3,43.3,41.3,43.4,41.3,43.5"/>
                                    <path class="st1" d="M42.7,43.8c0.1,0.1,0.2,0.1,0.1,0.1c-0.1,0-0.1,0-0.1,0c0,0-0.1,0-0.1-0.1C42.6,43.7,42.7,43.7,42.7,43.8
                                       M43,44.1c0,0.1,0.1,0.2,0,0.2c-0.1-0.1-0.2,0-0.3-0.1c0-0.1,0-0.2,0.1-0.2C42.9,43.9,42.9,43.9,43,44.1 M43,44.4
                                       c0,0.1-0.1,0.4-0.1,0.4c0-0.1-0.1-0.2-0.3-0.4c0,0,0-0.1,0-0.1S42.9,44.2,43,44.4 M42.8,44.9c-0.1,0.1-0.2,0.2-0.4,0.2
                                       c0-0.1,0.2-0.4,0-0.6c-0.1-0.1,0.1-0.1,0.1-0.1c0,0,0.2,0.2,0.2,0.2C42.8,44.7,42.9,44.8,42.8,44.9 M42.2,45.1
                                       c-0.1,0-0.3-0.1-0.4-0.1c0.1,0,0.3-0.2,0.3-0.4c0-0.1,0.1,0,0.1,0c0,0,0.1,0,0.1,0.2C42.4,44.9,42.3,45.1,42.2,45.1 M41.6,44.7
                                       c0,0,0-0.3,0.3-0.4c0.1,0,0.2,0.1,0.2,0.1c0,0.1-0.1,0.3-0.3,0.4C41.7,44.9,41.6,44.7,41.6,44.7 M42.6,43.2c0,0.1,0,0.1-0.1,0
                                       c-0.1,0-0.1,0-0.2,0.1c-0.1,0.1,0,0.2,0.1,0.3c0.1,0.1,0.2,0.3,0.1,0.6c-0.1,0.2-0.3,0.2-0.4,0.2c-0.1,0-0.2-0.2-0.3-0.1
                                       c-0.3,0.1-0.3,0.4-0.3,0.4c0,0.1,0.2,0.2,0.2,0.3c0,0,0.4,0.3,0.8,0.1c0.4-0.2,0.6-0.5,0.6-0.9c0-0.4-0.3-0.6-0.4-0.6
                                       C42.7,43.6,42.7,43.3,42.6,43.2C42.7,43.2,42.6,43.1,42.6,43.2"/>
                                    <path class="st1" d="M43.7,45.8C43.8,45.8,43.8,45.8,43.7,45.8c0.1,0.1,0.1,0.1,0,0.1C43.7,45.9,43.7,45.9,43.7,45.8
                                       C43.6,45.8,43.6,45.8,43.7,45.8 M44,45.8c0.1,0.1,0.1,0.1,0.1,0.1c-0.1,0-0.1,0.1-0.2,0.1c0,0-0.1-0.1-0.1-0.2
                                       C43.9,45.8,43.9,45.8,44,45.8 M44.1,46c0.1,0,0.1,0.2,0.1,0.3c0,0-0.2-0.1-0.3-0.1c0,0,0-0.1,0-0.1S44,45.9,44.1,46 M44.2,46.4
                                       c0,0.1,0,0.2-0.1,0.3c0,0-0.1-0.3-0.2-0.3c-0.1,0,0-0.1,0-0.1c0,0,0.2,0,0.2,0C44.1,46.2,44.2,46.3,44.2,46.4 M44,46.7
                                       c-0.1,0.1-0.2,0.1-0.3,0.1c0-0.1,0.1-0.2,0-0.4c0,0,0-0.1,0.1-0.1c0,0,0.1,0,0.1,0C44,46.5,44.1,46.6,44,46.7 M43.5,46.7
                                       c0,0-0.1-0.2,0-0.3c0-0.1,0.2,0,0.2,0c0.1,0,0.1,0.2,0.1,0.3C43.7,46.8,43.6,46.8,43.5,46.7 M43.4,45.6
                                       C43.4,45.6,43.4,45.6,43.4,45.6c-0.1,0.1-0.1,0.1-0.1,0.2c0,0,0.1,0.1,0.2,0.1c0.1,0,0.3,0.1,0.3,0.2c0.1,0.1-0.1,0.3-0.1,0.3
                                       c0,0-0.2,0-0.2,0.1c-0.1,0.2,0,0.3,0,0.4c0,0,0.2,0,0.2,0c0,0,0.4,0,0.5-0.3c0.1-0.2,0.1-0.5-0.1-0.7c-0.2-0.2-0.4-0.1-0.4-0.1
                                       C43.6,45.7,43.5,45.6,43.4,45.6C43.4,45.5,43.4,45.5,43.4,45.6"/>
                                    <path class="st1" d="M39.3,48.6C39.3,48.7,39.3,48.8,39.3,48.6c0.1,0.1,0.1,0.1,0.1,0c0,0,0,0,0-0.1
                                       C39.4,48.6,39.3,48.6,39.3,48.6 M39.3,48.9c0.1,0.1,0.1,0.1,0.1,0.1c0-0.1,0.1-0.1,0.2-0.1c0,0-0.1-0.1-0.2-0.1
                                       C39.3,48.8,39.3,48.8,39.3,48.9 M39.5,49c0,0.1,0.2,0.1,0.3,0.1c0,0-0.1-0.1,0-0.3c0,0-0.1,0-0.1,0S39.4,48.9,39.5,49 M39.9,49.1
                                       c0.1,0,0.2,0,0.3-0.1c0,0-0.3-0.1-0.3-0.2c0-0.1-0.1,0-0.1,0c0,0,0,0.1,0,0.2C39.7,49.1,39.8,49.1,39.9,49.1 M40.3,49
                                       c0.1-0.1,0.1-0.2,0.2-0.2c-0.1,0-0.2,0-0.4-0.1c0,0-0.1,0-0.1,0c0,0-0.1,0.1,0,0.1C40,49,40.2,49.1,40.3,49 M40.4,48.6
                                       c0,0-0.2-0.1-0.3-0.1c-0.1,0,0,0.1,0,0.1c0,0.1,0.2,0.1,0.4,0.1C40.4,48.8,40.4,48.6,40.4,48.6 M39.1,48.3
                                       C39.2,48.3,39.2,48.3,39.1,48.3c0.1-0.1,0.2,0,0.2,0c0.1,0,0.1,0.1,0.1,0.2c0,0.1,0,0.2,0.2,0.3c0.1,0.1,0.3,0,0.3,0
                                       c0,0,0-0.2,0.1-0.2c0.2-0.1,0.4,0,0.4,0.1c0,0,0,0.2,0,0.2c0,0-0.1,0.3-0.4,0.4c-0.3,0.1-0.6,0-0.7-0.2c-0.2-0.2-0.1-0.4-0.1-0.4
                                       C39.3,48.6,39.1,48.4,39.1,48.3C39.1,48.3,39.1,48.3,39.1,48.3"/>
                                    <path class="st1" d="M40.6,47.6L40.6,47.6C40.6,47.6,40.6,47.6,40.6,47.6z M42.5,47.7c-0.2,0-0.4,0.1-0.6,0.2
                                       c-0.1,0.1-0.2,0.1-0.4,0.1c-0.1,0-0.2,0-0.2,0c-0.1,0-0.1,0-0.2,0c0-0.1,0-0.2-0.1-0.2c0.1-0.1,0.2-0.2,0.3-0.1c0,0,0-0.1,0-0.1
                                       c-0.1,0-0.2,0-0.3,0c0,0,0.1,0,0.1-0.1c-0.1,0-0.2,0.2-0.2,0.4c-0.1-0.1-0.2-0.1-0.1-0.2c0,0,0-0.1,0-0.1c0.1-0.1,0.2-0.2,0.3-0.2
                                       c-0.1-0.1-0.1-0.1-0.3,0.1c0,0,0.1-0.1,0.1-0.1c-0.1,0.1-0.1,0.2-0.2,0.3c0,0-0.1-0.1-0.1-0.2c0,0,0-0.1,0-0.1c-0.1,0,0-0.1,0-0.1
                                       c0.1,0,0.1-0.1,0.2-0.1c0,0,0.1,0,0.1,0.1c0,0,0,0,0,0c0,0,0-0.1,0-0.1c-0.1-0.1-0.2,0-0.3,0.1c0,0,0-0.1,0.1-0.1
                                       c-0.1,0-0.2,0.2-0.2,0.3c0,0,0,0.1,0,0.1v0c0,0,0,0,0,0c0,0,0,0,0,0c0,0.1-0.1,0.1-0.2,0.2c0,0-0.1,0-0.1,0.1
                                       c-0.1,0.1-0.1,0.1-0.2,0.2c0.1,0.1,0.1,0.2,0.3,0.2c0.1,0.1,0.3,0.2,0.3,0.1c0-0.1,0.1-0.1,0.1-0.2c0,0,0,0-0.1,0.3
                                       c0.1,0,0.1,0,0.2,0c0.3,0,0.6,0,0.8-0.1c0.2,0,0.5-0.1,0.6-0.3c0.1,0,0.1-0.1,0.2-0.2c0,0,0-0.1,0-0.1c0,0,0,0,0,0
                                       C42.6,47.8,42.6,47.7,42.5,47.7C42.6,47.7,42.5,47.7,42.5,47.7"/>
                                    <path class="st1" d="M40.7,47c0.1,0,0.1,0,0.1,0c0,0,0-0.1,0-0.1C40.8,46.9,40.7,46.9,40.7,47c-0.1,0-0.1,0-0.2,0c0,0,0,0-0.1,0.1
                                       c0,0,0.1-0.1,0.1-0.1c-0.1,0-0.1,0.1-0.2,0.2c0,0,0.1,0,0.1,0C40.6,47.1,40.6,47,40.7,47"/>
                                    <path class="st1" d="M40.4,46.3c0.1,0,0.1,0,0.2,0c-0.1-0.1-0.3-0.1-0.3,0.1c-0.1,0.2-0.1,0.3-0.2,0.5c0,0,0,0,0,0
                                       c0-0.2,0.1-0.3,0.1-0.4c0-0.1,0-0.3,0.1-0.4c0.1,0,0.2,0.1,0.4,0.1c0,0,0,0,0,0c0,0-0.1,0-0.1,0c-0.3-0.1-0.3-0.1-0.3,0.2
                                       c0,0.2-0.1,0.3-0.1,0.5c0-0.3,0-0.5,0-0.8c0.2,0,0.3,0,0.5,0.1c0,0,0,0,0,0c-0.1,0-0.3,0-0.4-0.1c-0.1,0-0.1,0-0.1,0.1
                                       c0,0.1,0,0.3,0,0.4c0,0.1,0,0.2,0,0.3c0,0-0.1-0.2-0.1-0.3c0-0.1,0-0.3,0-0.4c0.2,0,0.4,0,0.6,0c0,0,0,0,0,0c-0.2,0-0.4,0-0.6,0
                                       c0,0,0,0,0,0v0c0,0,0,0,0,0c0,0,0.1-0.1,0.1-0.1c0,0,0,0-0.1,0c0,0,0,0,0,0c-0.1,0.1-0.2,0.1-0.2,0.2c-0.1,0.1-0.1,0.2-0.1,0.3
                                       c0,0.1,0,0.2,0,0.3c0,0,0,0,0,0c-0.2-0.2-0.5-0.4-0.5-0.8c-0.1,0.1,0,0.4,0.3,0.6c0,0-0.1,0-0.1,0c-0.1-0.1-0.1-0.2-0.3-0.3
                                       c0.1,0.1,0.2,0.2,0.2,0.2c0,0,0,0,0,0c-0.1,0-0.2-0.1-0.3-0.1c0,0,0,0,0,0c-0.1-0.2-0.1-0.3-0.2-0.5c-0.1-0.2-0.2-0.4-0.5-0.5
                                       c-0.2-0.1-0.4,0-0.6,0.1c-0.2,0.2-0.3,0.3-0.2,0.6c0,0,0,0,0,0c0,0.5,0.4,0.8,0.7,1.2c0.4,0.4,0.9,0.8,1.4,1.1c0,0,0,0,0,0
                                       c-0.1-0.1-0.2-0.1-0.3-0.2c-0.5-0.4-1-0.8-1.4-1.2c-0.1-0.1-0.2-0.3-0.3-0.5c0,0,0-0.1,0-0.1c0.4,0.5,0.9,0.9,1.4,1.3
                                       c0,0-0.1-0.1-0.1-0.1c0,0-0.1-0.1-0.1-0.1c-0.4-0.3-0.7-0.6-1-1c-0.2-0.2-0.2-0.4-0.1-0.6c0.1-0.3,0.5-0.4,0.8-0.2
                                       c0.1,0.1,0.2,0.1,0.2,0.2c0.1,0.1,0.1,0.3,0.2,0.4c0,0,0,0,0,0.1c-0.1-0.1-0.2-0.1-0.3-0.2c0,0,0,0,0,0c0.1,0.1,0.2,0.1,0.2,0.2
                                       c0.1,0.1,0.2,0.1,0.2,0.2c-0.1-0.2-0.3-0.3-0.4-0.4c0,0,0,0,0,0c0.1,0,0.1,0.1,0.2,0.1c0,0,0.1,0.1,0.1,0.1c0,0,0,0.1,0.1,0.1
                                       c0,0-0.1,0-0.1-0.1c0,0,0,0,0,0.1c0,0,0.1,0.1,0.1,0.1c-0.1,0-0.1,0-0.2-0.1c-0.1-0.1-0.1-0.1-0.2-0.2c0,0,0,0,0,0
                                       c0.1,0.1,0.2,0.2,0.3,0.3c0.2,0.2,0.5,0.4,0.7,0.6c0.1,0,0.1,0.1,0.2,0.1c0,0,0,0,0,0c0.1,0.1,0.2,0.2,0.2,0.3
                                       c0,0.1,0.1,0.1,0.1,0.2c0.1,0.2,0.2,0.2,0.3,0c0,0,0.1,0,0.1-0.1c0.1-0.1,0.1-0.1,0.2-0.2c0-0.1-0.1-0.2-0.1-0.3c0,0,0,0,0,0
                                       c0-0.1,0-0.1-0.1-0.1c0,0,0,0.1-0.1,0.1c0,0,0,0,0,0c0-0.1,0-0.2,0-0.3c0.1-0.1,0.1-0.2,0.2-0.2c0,0,0.1,0,0.1,0
                                       c0-0.1,0-0.1-0.1,0c-0.1,0-0.1,0.1-0.2,0.2c0,0,0-0.1,0-0.1c0,0,0,0,0,0c0,0.1,0,0.3,0,0.4c0,0,0,0-0.1,0
                                       C40.2,46.8,40.2,46.6,40.4,46.3C40.3,46.4,40.4,46.3,40.4,46.3"/>
                                    <path class="st1" d="M37.9,49.3h2.5L38,49.8C38,49.8,37.9,49.6,37.9,49.3z"/>
                                 </g>
                              </g>
                           </svg>