  <svg version="1.1" id="Calque_5" xmlns="http://www.w3.org/2000/svg" xmlns:xlink="http://www.w3.org/1999/xlink" x="0px" y="0px"
                                    viewBox="0 0 120 120" style="enable-background:new 0 0 120 120;" xml:space="preserve">
                                    <style type="text/css">
                                       .st0{fill:#ec6813;}
                                    </style>
                                    <g>
                                       <g>
                                          <path class="st0" d="M75.5,99.1H44.5c-0.1,0-0.2,0-0.3-0.1c-0.2-0.1-19.7-8.3-21.2-32.5c0-0.2,0.1-0.4,0.2-0.6
                                             c0.1-0.2,0.4-0.2,0.6-0.2h72.3c0.2,0,0.4,0.1,0.6,0.2c0.1,0.2,0.2,0.4,0.2,0.6c-1.5,24.1-21,32.4-21.2,32.5
                                             C75.7,99.1,75.6,99.1,75.5,99.1z M44.7,97.6h30.6c1.7-0.7,18.3-8.8,20-30.2H24.7C26.4,88.8,43,96.8,44.7,97.6z"/>
                                       </g>
                                       <g>
                                          <path class="st0" d="M95.2,74.1H55.6c-0.4,0-0.8-0.4-0.8-0.8c0-0.4,0.4-0.8,0.8-0.8h39.6c0.4,0,0.8,0.3,0.8,0.8
                                             C96,73.7,95.6,74.1,95.2,74.1z"/>
                                       </g>
                                       <g>
                                          <g>
                                             <path class="st0" d="M90.6,67.4H31.2c-0.4,0-0.7-0.2-0.8-0.6c-0.2-0.6-0.2-1.1-0.2-1.7c0-3.6,2.9-6.5,6.5-6.5
                                                c1.7,0,3.2,0.6,4.4,1.8c0.6-1.1,1.8-1.9,3.2-1.9c2,0,3.7,1.6,3.7,3.7c0.4-0.1,0.9-0.2,1.3-0.1c0.4-2.2,2.3-3.9,4.6-3.9
                                                c0.8,0,1.5,0.2,2.2,0.6c0.8-1.3,2.3-2.1,3.9-2.1c1.4,0,2.8,0.7,3.6,1.8c1.3-1.4,3.7-1.5,5.2-0.2c0.7-0.6,1.5-1,2.5-1
                                                c1.9,0,3.4,1.4,3.7,3.2c1.1-0.2,2.1,0.2,2.9,0.9c1.3-2.2,3.7-3.7,6.3-3.7c4.1,0,7.4,3.3,7.4,7.4c0,0.5-0.1,1-0.2,1.6
                                                C91.3,67.1,90.9,67.4,90.6,67.4z M31.8,65.8h58.1c0-0.2,0-0.5,0-0.7c0-3.2-2.6-5.8-5.8-5.8c-2.4,0-4.6,1.5-5.4,3.8
                                                c-0.1,0.3-0.4,0.5-0.7,0.5c-0.3,0-0.6-0.2-0.7-0.4c-0.5-1-1.7-1.5-2.9-1c-0.3,0.1-0.6,0.1-0.8-0.1c-0.2-0.2-0.3-0.5-0.3-0.8
                                                c0-0.1,0-0.3,0-0.4c0-1.2-1-2.1-2.1-2.1c-0.7,0-1.4,0.4-1.8,1c-0.3,0.5-1.1,0.5-1.3,0c-0.4-0.6-1.1-1-1.8-1c-0.9,0-1.7,0.5-2,1.4
                                                c-0.1,0.3-0.4,0.5-0.7,0.5c0,0,0,0,0,0c-0.3,0-0.6-0.2-0.7-0.5c-0.4-1.2-1.6-2-2.9-2c-1.3,0-2.4,0.8-2.8,2
                                                c-0.1,0.2-0.3,0.4-0.5,0.5c-0.3,0.1-0.5,0-0.7-0.2c-0.6-0.5-1.3-0.7-2-0.7c-1.7,0-3.1,1.4-3.1,3.1c0,0.3-0.1,0.6-0.3,0.8
                                                c-0.2,0.2-0.5,0.3-0.7,0.2c-0.9-0.4-1.9-0.1-2.5,0.6c-0.3,0.3-0.7,0.4-1.1,0.1c-0.3-0.3-0.4-0.7-0.2-1.1c0.2-0.4,0.4-0.8,0.4-1.2
                                                c0-1.2-1-2.1-2.1-2.1c-1.1,0-2,0.8-2.1,1.9c0,0.3-0.3,0.6-0.6,0.7c-0.3,0.1-0.7,0-0.8-0.3c-0.9-1.4-2.5-2.2-4.1-2.2
                                                c-2.7,0-4.9,2.2-4.9,4.9C31.7,65.3,31.7,65.6,31.8,65.8z"/>
                                          </g>
                                          <g>
                                             <path class="st0" d="M51,61.1C51,61.1,51,61.1,51,61.1c-0.3,0-0.5-0.1-0.6-0.3L29.6,32c-0.5-0.6-0.6-1.4-0.5-2.2
                                                c0.1-0.8,0.6-1.4,1.2-1.9c0.6-0.4,1.4-0.6,2.1-0.4c0.7,0.2,1.4,0.6,1.8,1.2l19.3,29.9c0.1,0.2,0.2,0.5,0.1,0.7
                                                c-0.1,0.2-0.3,0.4-0.5,0.5c-0.6,0.2-1.1,0.5-1.5,0.9C51.5,61,51.3,61.1,51,61.1z M31.9,29c-0.2,0-0.5,0.1-0.7,0.2
                                                c-0.3,0.2-0.5,0.5-0.6,0.8c-0.1,0.3,0,0.7,0.2,1l20.3,28.1c0.2-0.1,0.4-0.3,0.6-0.4L32.9,29.6c-0.2-0.3-0.5-0.5-0.8-0.6
                                                C32,29,32,29,31.9,29z"/>
                                          </g>
                                          <g>
                                             <path class="st0" d="M56.2,60.5c-0.2,0-0.3-0.1-0.5-0.2c-0.5-0.4-1.2-0.6-1.8-0.6c-0.4,0-0.8-0.2-0.9-0.6l-8.9-34.7
                                                c-0.2-0.8-0.1-1.6,0.3-2.2c0.4-0.7,1.1-1.1,1.8-1.3c1.5-0.3,3,0.7,3.3,2.2L57,59.6c0.1,0.3-0.1,0.6-0.3,0.8
                                                C56.5,60.5,56.4,60.5,56.2,60.5z M54.5,58.2c0.2,0,0.5,0.1,0.7,0.1l-7-34.9c-0.1-0.7-0.8-1.1-1.5-1c-0.3,0.1-0.6,0.3-0.8,0.6
                                                c-0.2,0.3-0.2,0.7-0.2,1L54.5,58.2z"/>
                                          </g>
                                       </g>
                                    </g>
                                 </svg>